<?xml version="1.0" encoding="UTF-8" standalone="no"?>
<!-- Created with Inkscape (http://www.inkscape.org/) -->

<svg
   width="400mm"
   height="300mm"
   viewBox="0 0 400 300"
   version="1.1"
   id="svg8"
   inkscape:version="1.2.1 (9c6d41e410, 2022-07-14)"
   sodipodi:docname="flashlight_sideswitch_path.svg"
   xmlns:inkscape="http://www.inkscape.org/namespaces/inkscape"
   xmlns:sodipodi="http://sodipodi.sourceforge.net/DTD/sodipodi-0.dtd"
   xmlns="http://www.w3.org/2000/svg"
   xmlns:svg="http://www.w3.org/2000/svg"
   xmlns:rdf="http://www.w3.org/1999/02/22-rdf-syntax-ns#"
   xmlns:cc="http://creativecommons.org/ns#"
   xmlns:dc="http://purl.org/dc/elements/1.1/">
  <defs
     id="defs2">
    <marker
       style="overflow:visible"
       id="Arrow2Send"
       refX="0"
       refY="0"
       orient="auto"
       inkscape:stockid="Arrow2Send"
       inkscape:isstock="true">
      <path
         transform="matrix(-0.3,0,0,-0.3,0.69,0)"
         d="M 8.7185878,4.0337352 -2.2072895,0.01601326 8.7185884,-4.0017078 c -1.7454984,2.3720609 -1.7354408,5.6174519 -6e-7,8.035443 z"
         style="fill:context-stroke;fill-rule:evenodd;stroke:context-stroke;stroke-width:0.625;stroke-linejoin:round"
         id="path64967" />
    </marker>
    <marker
       style="overflow:visible"
       id="Arrow2Mend"
       refX="0"
       refY="0"
       orient="auto"
       inkscape:stockid="Arrow2Mend"
       inkscape:isstock="true">
      <path
         transform="scale(-0.6)"
         d="M 8.7185878,4.0337352 -2.2072895,0.01601326 8.7185884,-4.0017078 c -1.7454984,2.3720609 -1.7354408,5.6174519 -6e-7,8.035443 z"
         style="fill:context-stroke;fill-rule:evenodd;stroke:context-stroke;stroke-width:0.625;stroke-linejoin:round"
         id="path64961" />
    </marker>
    <marker
       style="overflow:visible"
       id="Arrow1Send"
       refX="0"
       refY="0"
       orient="auto"
       inkscape:stockid="Arrow1Send"
       inkscape:isstock="true">
      <path
         transform="matrix(-0.2,0,0,-0.2,-1.2,0)"
         style="fill:context-stroke;fill-rule:evenodd;stroke:context-stroke;stroke-width:1pt"
         d="M 0,0 5,-5 -12.5,0 5,5 Z"
         id="path64949" />
    </marker>
    <marker
       style="overflow:visible"
       id="Arrow1Mend"
       refX="0"
       refY="0"
       orient="auto"
       inkscape:stockid="Arrow1Mend"
       inkscape:isstock="true">
      <path
         transform="matrix(-0.4,0,0,-0.4,-4,0)"
         style="fill:context-stroke;fill-rule:evenodd;stroke:context-stroke;stroke-width:1pt"
         d="M 0,0 5,-5 -12.5,0 5,5 Z"
         id="path64943" />
    </marker>
    <marker
       style="overflow:visible"
       id="Arrow2Mend-3"
       refX="0"
       refY="0"
       orient="auto"
       inkscape:stockid="Arrow2Mend"
       inkscape:isstock="true">
      <path
         transform="scale(-0.6)"
         d="M 8.7185878,4.0337352 -2.2072895,0.01601326 8.7185884,-4.0017078 c -1.7454984,2.3720609 -1.7354408,5.6174519 -6e-7,8.035443 z"
         style="fill:context-stroke;fill-rule:evenodd;stroke:context-stroke;stroke-width:0.625;stroke-linejoin:round"
         id="path64961-6" />
    </marker>
  </defs>
  <sodipodi:namedview
     id="base"
     pagecolor="#ffffff"
     bordercolor="#666666"
     borderopacity="1.0"
     inkscape:pageopacity="0.0"
     inkscape:pageshadow="2"
     inkscape:zoom="0.58378927"
     inkscape:cx="546.43005"
     inkscape:cy="551.56889"
     inkscape:document-units="mm"
     inkscape:current-layer="layer1"
     showgrid="false"
     inkscape:window-width="1920"
     inkscape:window-height="998"
     inkscape:window-x="0"
     inkscape:window-y="0"
     inkscape:window-maximized="1"
     inkscape:pagecheckerboard="0"
     showguides="false"
     inkscape:showpageshadow="2"
     inkscape:deskcolor="#d1d1d1" />
  <metadata
     id="metadata5">
    <rdf:RDF>
      <cc:Work
         rdf:about="">
        <dc:format>image/svg+xml</dc:format>
        <dc:type
           rdf:resource="http://purl.org/dc/dcmitype/StillImage" />
      </cc:Work>
    </rdf:RDF>
  </metadata>
  <g
     inkscape:label="Layer 1"
     inkscape:groupmode="layer"
     id="layer1">
    <g
       id="g1302"
       transform="translate(72.709768,-9.1499546)">
      <rect
         style="opacity:1;fill:none;fill-opacity:1;stroke:#ff00ff;stroke-width:0.265;stroke-linecap:round;stroke-linejoin:round;stroke-miterlimit:4;stroke-dasharray:none;stroke-dashoffset:0;stroke-opacity:1"
         id="rect1018"
         width="117.78439"
         height="78.683418"
         x="20.312483"
         y="16.366995" />
      <path
         id="path1020"
         style="opacity:1;fill:none;stroke:#000000;stroke-width:0.265;stroke-linecap:round;stroke-linejoin:round"
         d="m 23.767841,26 v -1.520834 c 0,-2.77 2.230159,-5 5.000159,-5 m 0.30008,0 H 41.06792 53.468 m 0.3,0 c 2.77,0 4.999841,2.23 4.999841,5 V 26 m 0,0.3 v 56.231333 m 0,0.3 v 3.65617 c 0,2.77 -2.23,5 -5,5 H 50.443 m -0.3,0 H 44.392841 32.062 m -0.3,0 h -2.993687 c -2.77,0 -5.000472,-2.23 -5.000472,-5 v -3.85617 m 0,-0.3 V 45.994793 26.3"
         sodipodi:nodetypes="cscccccsccccsscccccsscccc" />
      <path
         id="path1022"
         style="fill:none;stroke:#000000;stroke-width:0.265;stroke-linecap:round;stroke-linejoin:round"
         d="m 100.26992,25.897429 v -1.520834 c 0,-2.77 2.23016,-5 5.00016,-5 m 0.30041,0 h 12.19943 12.20057 m 0.29959,0 c 2.77,0 4.99984,2.23 4.99984,5 v 1.520834 m 0,0.299571 v 56.031763 m 0,0.29957 v 3.8566 c 0,2.77 -2.23,5 -5,5 h -3.32443 m -0.30041,0 h -5.95017 -12.13084 m -0.29999,0 h -2.99369 c -2.77,0 -5.00047,-2.23 -5.00047,-5 v -3.8566 m 0,-0.29957 V 45.892219 26.197"
         sodipodi:nodetypes="cscccccsccccsscccccsscccc" />
      <path
         id="path1024"
         style="opacity:1;fill:none;stroke:#0000ff;stroke-width:0.265;stroke-linecap:round;stroke-linejoin:round"
         d="m 52.267841,75.959528 c -3e-6,6.075131 -4.92487,10.999995 -11,10.999995 -6.07513,0 -10.999997,-4.924864 -11,-10.999995 0,-6.075132 4.924868,-11 11,-11 6.075132,0 11,4.924868 11,11 z"
         sodipodi:nodetypes="sssss" />
      <path
         style="opacity:1;fill:none;fill-opacity:1;stroke:#ff0000;stroke-width:1.00157;stroke-linecap:round;stroke-linejoin:round;stroke-miterlimit:4;stroke-dasharray:none;stroke-dashoffset:0;stroke-opacity:1"
         d="m 150.6582,73.621094 c -2.29027,0 -4.13476,1.844493 -4.13476,4.134765 v 21.96875 c 0,0.08915 0.0199,0.172057 0.0254,0.259766 h -3.23633 v 3.779295 h 6.47266 c 0.28154,0.0601 0.57303,0.0937 0.87304,0.0937 h 10.62891 c 0.29998,0 0.59153,-0.0336 0.87305,-0.0937 h 6.47461 v -3.779295 h -3.23829 c 0.006,-0.08771 0.0254,-0.170621 0.0254,-0.259766 v -21.96875 c 0,-2.290272 -1.8445,-4.134765 -4.13477,-4.134765 z"
         transform="scale(0.26458333)"
         id="path1026"
         inkscape:connector-curvature="0" />
      <path
         style="fill:none;stroke:#0000ff;stroke-width:0.264583px;stroke-linecap:butt;stroke-linejoin:miter;stroke-opacity:1"
         d="M 39.630659,27.454137 32.189537,50.728208"
         id="path1028"
         inkscape:connector-curvature="0"
         sodipodi:nodetypes="cc" />
      <path
         sodipodi:nodetypes="cc"
         inkscape:connector-curvature="0"
         id="path1030"
         d="m 42.904878,27.454137 0.02204,27.010473"
         style="fill:none;stroke:#0000ff;stroke-width:0.264583px;stroke-linecap:butt;stroke-linejoin:miter;stroke-opacity:1" />
      <path
         id="path1032"
         style="fill:none;stroke:#0000ff;stroke-width:0.265;stroke-linecap:round;stroke-linejoin:round"
         d="m 106.77,75.959528 c 0,6.075131 4.92487,10.999995 11,10.999995 6.07513,0 11,-4.924864 11,-10.999995 0,-6.075132 -4.92487,-11 -11,-11 -6.07513,0 -11,4.924868 -11,11 z"
         sodipodi:nodetypes="sssss" />
      <path
         inkscape:connector-curvature="0"
         id="path1034"
         d="m 119.17619,19.478914 c 0.60596,0 1.09398,0.488022 1.09398,1.09399 v 5.812565 c 0,0.02359 -0.005,0.04552 -0.007,0.06873 h 0.85628 v 0.999938 h -1.71256 c -0.0745,0.0159 -0.15161,0.02479 -0.23099,0.02479 h -2.81223 c -0.0794,0 -0.15651,-0.0089 -0.23099,-0.02479 h -1.71308 v -0.999938 h 0.8568 c -0.002,-0.02321 -0.007,-0.04514 -0.007,-0.06873 v -5.812565 c 0,-0.605968 0.48802,-1.09399 1.09399,-1.09399 z"
         style="fill:#ff0000;fill-opacity:1;stroke:#ff0000;stroke-width:0.265;stroke-linecap:round;stroke-linejoin:round;stroke-miterlimit:4;stroke-dasharray:none;stroke-dashoffset:0;stroke-opacity:1" />
      <g
         id="g1041"
         transform="matrix(-1,0,0,1,198.75247,0.10137621)">
        <circle
           r="1.4"
           cy="22.981913"
           cx="94.546593"
           id="circle1036"
           style="opacity:1;fill:none;fill-opacity:1;stroke:#000000;stroke-width:0.265;stroke-linecap:round;stroke-linejoin:round;stroke-miterlimit:4;stroke-dasharray:none;stroke-dashoffset:0;stroke-opacity:1" />
        <circle
           style="opacity:1;fill:none;fill-opacity:1;stroke:#000000;stroke-width:0.265;stroke-linecap:round;stroke-linejoin:round;stroke-miterlimit:4;stroke-dasharray:none;stroke-dashoffset:0;stroke-opacity:1"
           id="circle1039"
           cx="67.418739"
           cy="22.981913"
           r="1.4" />
      </g>
      <g
         transform="matrix(-1,0,0,1,198.75247,64.166815)"
         id="g1047">
        <circle
           style="opacity:1;fill:none;fill-opacity:1;stroke:#000000;stroke-width:0.265;stroke-linecap:round;stroke-linejoin:round;stroke-miterlimit:4;stroke-dasharray:none;stroke-dashoffset:0;stroke-opacity:1"
           id="circle1043"
           cx="94.546593"
           cy="22.981913"
           r="1.4" />
        <circle
           r="1.4"
           cy="22.981913"
           cx="67.418739"
           id="circle1045"
           style="opacity:1;fill:none;fill-opacity:1;stroke:#000000;stroke-width:0.265;stroke-linecap:round;stroke-linejoin:round;stroke-miterlimit:4;stroke-dasharray:none;stroke-dashoffset:0;stroke-opacity:1" />
      </g>
      <g
         id="g1053"
         transform="translate(-39.714825,0.20411142)">
        <circle
           r="1.4"
           cy="22.981913"
           cx="94.546593"
           id="circle1049"
           style="opacity:1;fill:none;fill-opacity:1;stroke:#000000;stroke-width:0.265;stroke-linecap:round;stroke-linejoin:round;stroke-miterlimit:4;stroke-dasharray:none;stroke-dashoffset:0;stroke-opacity:1" />
        <circle
           style="opacity:1;fill:none;fill-opacity:1;stroke:#000000;stroke-width:0.265;stroke-linecap:round;stroke-linejoin:round;stroke-miterlimit:4;stroke-dasharray:none;stroke-dashoffset:0;stroke-opacity:1"
           id="circle1051"
           cx="67.418739"
           cy="22.981913"
           r="1.4" />
      </g>
      <g
         transform="translate(-39.714825,64.26955)"
         id="g1059">
        <circle
           style="opacity:1;fill:none;fill-opacity:1;stroke:#000000;stroke-width:0.265;stroke-linecap:round;stroke-linejoin:round;stroke-miterlimit:4;stroke-dasharray:none;stroke-dashoffset:0;stroke-opacity:1"
           id="circle1055"
           cx="94.546593"
           cy="22.981913"
           r="1.4" />
        <circle
           r="1.4"
           cy="22.981913"
           cx="67.418739"
           id="circle1057"
           style="opacity:1;fill:none;fill-opacity:1;stroke:#000000;stroke-width:0.265;stroke-linecap:round;stroke-linejoin:round;stroke-miterlimit:4;stroke-dasharray:none;stroke-dashoffset:0;stroke-opacity:1" />
      </g>
      <path
         style="opacity:1;fill:#ff0000;fill-opacity:1;stroke:#ff0000;stroke-width:1.00157;stroke-linecap:round;stroke-linejoin:round;stroke-miterlimit:4;stroke-dasharray:none;stroke-dashoffset:0;stroke-opacity:1"
         d="m 150.6582,73.621094 c -2.29027,0 -4.13476,1.844493 -4.13476,4.134765 v 21.96875 c 0,0.08915 0.0199,0.172057 0.0254,0.259766 h -3.23633 v 3.779295 h 6.47266 c 0.28154,0.0601 0.57303,0.0937 0.87304,0.0937 h 10.62891 c 0.29998,0 0.59153,-0.0336 0.87305,-0.0937 h 6.47461 v -3.779295 h -3.23829 c 0.006,-0.08771 0.0254,-0.170621 0.0254,-0.259766 v -21.96875 c 0,-2.290272 -1.8445,-4.134765 -4.13477,-4.134765 z"
         transform="scale(0.26458333)"
         id="path1061"
         inkscape:connector-curvature="0" />
      <path
         id="path1063"
         style="fill:#ff00ff;fill-opacity:0;stroke:#0000ff;stroke-width:0.190474;stroke-linecap:round;stroke-linejoin:round"
         d="m 39.811477,38.741101 h 15.642547 v 4.809525 H 39.811477 Z"
         sodipodi:nodetypes="ccccc" />
      <path
         id="path1065"
         style="fill:#ff00ff;fill-opacity:0;stroke:#0000ff;stroke-width:0.190474;stroke-linecap:round;stroke-linejoin:round"
         d="M 45.32066,34.277798 V 56.270345 H 40.511135 V 34.277798 Z"
         sodipodi:nodetypes="ccccc" />
      <path
         id="path1067"
         style="fill:#ff00ff;fill-opacity:0;stroke:#0000ff;stroke-width:0.190474;stroke-linecap:round;stroke-linejoin:round"
         d="M 36.31768,32.161131 V 84.845345 H 31.508155 V 32.161131 Z"
         sodipodi:nodetypes="ccccc" />
      <path
         id="path1069"
         style="fill:#ff00ff;fill-opacity:0;stroke:#0000ff;stroke-width:0.190474;stroke-linecap:round;stroke-linejoin:round"
         d="M 34.73732,33.748631 V 55.741178 H 29.927795 V 33.748631 Z"
         sodipodi:nodetypes="ccccc" />
      <path
         id="path1071"
         style="fill:#ff00ff;fill-opacity:0;stroke:#0000ff;stroke-width:0.190474;stroke-linecap:round;stroke-linejoin:round"
         d="m 33.446567,73.554763 h 15.642547 v 4.809525 H 33.446567 Z"
         sodipodi:nodetypes="ccccc" />
      <path
         id="path1073"
         style="fill:#ff00ff;fill-opacity:0;stroke:#0000ff;stroke-width:0.190474;stroke-linecap:round;stroke-linejoin:round"
         d="m 109.03999,45.669079 8.02926,37.547815 -4.70321,1.005736 -8.02926,-37.547814 z"
         sodipodi:nodetypes="ccccc" />
      <g
         aria-label="langes Bein"
         id="g1095"
         style="font-size:2.82222px;line-height:1.25;font-family:Arial;-inkscape-font-specification:Arial;fill:#0000ff;stroke-width:0.264583">
        <path
           d="m 45.914894,27.118189 v -2.020203 h 0.248047 v 2.020203 z"
           id="path1075" />
        <path
           d="m 47.502393,26.937666 q -0.137804,0.117133 -0.265961,0.165364 -0.12678,0.04823 -0.272852,0.04823 -0.241156,0 -0.370692,-0.117133 -0.129535,-0.118512 -0.129535,-0.301791 0,-0.107486 0.04823,-0.195681 0.04961,-0.08957 0.128158,-0.143316 0.07993,-0.05374 0.179144,-0.0813 0.07304,-0.01929 0.220486,-0.03721 0.300412,-0.03583 0.44235,-0.08544 0.0014,-0.05099 0.0014,-0.06477 0,-0.151584 -0.07028,-0.213596 -0.09508,-0.08406 -0.282497,-0.08406 -0.175011,0 -0.259071,0.06201 -0.08268,0.06063 -0.122645,0.216352 l -0.242535,-0.03307 q 0.03307,-0.155719 0.108865,-0.250803 0.07579,-0.09646 0.219108,-0.14745 0.143316,-0.05236 0.332107,-0.05236 0.187413,0 0.304546,0.0441 0.117133,0.0441 0.172255,0.111621 0.05512,0.06614 0.07717,0.16812 0.0124,0.06339 0.0124,0.228754 v 0.330729 q 0,0.345888 0.01516,0.438216 0.01654,0.09095 0.06339,0.175011 h -0.259071 q -0.03859,-0.07717 -0.04961,-0.180523 z m -0.02067,-0.553971 q -0.135047,0.05512 -0.405143,0.09371 -0.152962,0.02205 -0.216351,0.04961 -0.06339,0.02756 -0.09784,0.0813 -0.03445,0.05237 -0.03445,0.117133 0,0.09922 0.07441,0.165365 0.07579,0.06615 0.220486,0.06615 0.143316,0 0.254937,-0.06201 0.111621,-0.06339 0.163986,-0.172255 0.03996,-0.08406 0.03996,-0.248046 z"
           id="path1077" />
        <path
           d="m 48.116998,27.118189 v -1.463476 h 0.223242 v 0.208084 q 0.16123,-0.241156 0.465776,-0.241156 0.132292,0 0.242535,0.04823 0.111621,0.04685 0.166742,0.124023 0.05512,0.07717 0.07717,0.183279 0.01378,0.0689 0.01378,0.241157 v 0.899858 h -0.248047 v -0.890212 q 0,-0.151584 -0.02894,-0.225998 -0.02894,-0.07579 -0.103353,-0.119889 -0.07304,-0.04548 -0.172254,-0.04548 -0.158475,0 -0.27423,0.100597 -0.114377,0.100597 -0.114377,0.381716 v 0.799262 z"
           id="path1079" />
        <path
           d="m 49.641107,27.239456 0.241156,0.03583 q 0.01516,0.111621 0.08406,0.162608 0.09233,0.0689 0.252181,0.0689 0.172255,0 0.265961,-0.0689 0.09371,-0.0689 0.12678,-0.192925 0.01929,-0.07579 0.01791,-0.318326 -0.162608,0.191547 -0.405143,0.191547 -0.30179,0 -0.467154,-0.21773 -0.165365,-0.21773 -0.165365,-0.522276 0,-0.209462 0.07579,-0.38585 0.07579,-0.177767 0.219108,-0.27423 0.144694,-0.09646 0.338997,-0.09646 0.259071,0 0.427192,0.209461 v -0.176389 h 0.228754 v 1.265039 q 0,0.341753 -0.07028,0.483691 -0.0689,0.143315 -0.220486,0.225998 -0.150206,0.08268 -0.370692,0.08268 -0.261827,0 -0.423057,-0.118511 -0.16123,-0.117133 -0.155718,-0.354156 z m 0.205327,-0.879188 q 0,0.28801 0.114377,0.420302 0.114377,0.132291 0.286632,0.132291 0.170877,0 0.286632,-0.130913 0.115755,-0.132292 0.115755,-0.413411 0,-0.268718 -0.119889,-0.405143 -0.118512,-0.136426 -0.286632,-0.136426 -0.165365,0 -0.28112,0.135048 -0.115755,0.133669 -0.115755,0.398252 z"
           id="path1081" />
        <path
           d="m 52.257999,26.6469 0.256315,0.0317 q -0.06063,0.22462 -0.22462,0.348643 -0.163986,0.124024 -0.418923,0.124024 -0.321083,0 -0.509874,-0.19706 -0.187413,-0.198437 -0.187413,-0.555349 0,-0.369313 0.190169,-0.573263 0.190169,-0.203949 0.493338,-0.203949 0.293521,0 0.479556,0.199815 0.186035,0.199815 0.186035,0.562239 0,0.02205 -0.0014,0.06615 h -1.091405 q 0.01378,0.241156 0.136426,0.369314 0.122645,0.128157 0.305924,0.128157 0.136426,0 0.232888,-0.07166 0.09646,-0.07166 0.152962,-0.228754 z m -0.81442,-0.401009 h 0.817176 q -0.01654,-0.184657 -0.09371,-0.276985 -0.118511,-0.143316 -0.307302,-0.143316 -0.170877,0 -0.28801,0.114377 -0.115755,0.114377 -0.128158,0.305924 z"
           id="path1083" />
        <path
           d="m 52.726532,26.681351 0.245291,-0.03858 q 0.02067,0.14745 0.114377,0.225998 0.09508,0.07855 0.264583,0.07855 0.170876,0 0.253559,-0.0689 0.08268,-0.07028 0.08268,-0.163986 0,-0.08406 -0.07304,-0.132292 -0.05099,-0.03307 -0.253559,-0.08406 -0.272851,-0.0689 -0.37896,-0.118511 -0.104731,-0.05099 -0.159852,-0.139182 -0.05374,-0.08957 -0.05374,-0.197059 0,-0.09784 0.0441,-0.180523 0.04548,-0.08406 0.122646,-0.139182 0.05788,-0.04272 0.157096,-0.07166 0.100597,-0.03032 0.214974,-0.03032 0.172254,0 0.30179,0.04961 0.130913,0.04961 0.192925,0.135047 0.06201,0.08406 0.08544,0.225999 l -0.242534,0.03307 q -0.01654,-0.112999 -0.09646,-0.176388 -0.07855,-0.06339 -0.223242,-0.06339 -0.170876,0 -0.243912,0.0565 -0.07304,0.0565 -0.07304,0.132291 0,0.04823 0.03032,0.08682 0.03032,0.03996 0.09508,0.06615 0.03721,0.01378 0.219108,0.06339 0.263205,0.07028 0.366558,0.115755 0.104731,0.0441 0.163986,0.129536 0.05926,0.08544 0.05926,0.212217 0,0.124024 -0.07304,0.234267 -0.07166,0.108865 -0.208084,0.169498 -0.136425,0.05926 -0.30868,0.05926 -0.285254,0 -0.43546,-0.118511 -0.148828,-0.118512 -0.190169,-0.3514 z"
           id="path1085" />
        <path
           d="m 45.941077,30.645964 v -2.020202 h 0.75792 q 0.23151,0 0.370692,0.06201 0.14056,0.06063 0.219108,0.188791 0.07993,0.12678 0.07993,0.265961 0,0.129536 -0.07028,0.243913 -0.07028,0.114377 -0.212217,0.184657 0.183279,0.05374 0.281119,0.183279 0.09922,0.129535 0.09922,0.305924 0,0.141938 -0.06063,0.264583 -0.05926,0.121268 -0.14745,0.187413 -0.08819,0.06615 -0.221864,0.100597 -0.132291,0.03307 -0.325216,0.03307 z m 0.267339,-1.171332 h 0.436838 q 0.177767,0 0.254937,-0.02343 0.101974,-0.03032 0.152962,-0.100597 0.05236,-0.07028 0.05236,-0.176389 0,-0.100596 -0.04823,-0.176388 -0.04823,-0.07717 -0.137804,-0.104731 -0.08957,-0.02894 -0.307302,-0.02894 h -0.403765 z m 0,0.932932 H 46.7114 q 0.129535,0 0.1819,-0.0096 0.09233,-0.01654 0.154341,-0.05512 0.06201,-0.03859 0.101974,-0.111621 0.03996,-0.07441 0.03996,-0.170877 0,-0.112999 -0.05788,-0.195681 -0.05788,-0.08406 -0.16123,-0.117133 -0.101975,-0.03445 -0.2949,-0.03445 H 46.20841 Z"
           id="path1087" />
        <path
           d="m 48.804638,30.174675 0.256315,0.03169 q -0.06063,0.22462 -0.22462,0.348644 -0.163987,0.124023 -0.418924,0.124023 -0.321082,0 -0.509873,-0.197059 -0.187413,-0.198438 -0.187413,-0.555349 0,-0.369314 0.190169,-0.573264 0.190169,-0.203949 0.493337,-0.203949 0.293522,0 0.479557,0.199815 0.186035,0.199815 0.186035,0.562239 0,0.02205 -0.0014,0.06615 h -1.091405 q 0.01378,0.241156 0.136425,0.369314 0.122646,0.128157 0.305925,0.128157 0.136425,0 0.232888,-0.07166 0.09646,-0.07166 0.152962,-0.228754 z m -0.81442,-0.401009 h 0.817176 q -0.01654,-0.184657 -0.09371,-0.276985 -0.118511,-0.143316 -0.307302,-0.143316 -0.170876,0 -0.28801,0.114377 -0.115755,0.114377 -0.128157,0.305924 z"
           id="path1089" />
        <path
           d="m 49.373767,28.911015 v -0.285253 h 0.248047 v 0.285253 z m 0,1.734949 v -1.463475 h 0.248047 v 1.463475 z"
           id="path1091" />
        <path
           d="m 49.999396,30.645964 v -1.463475 h 0.223242 v 0.208083 q 0.161231,-0.241156 0.465777,-0.241156 0.132291,0 0.242534,0.04823 0.111621,0.04685 0.166743,0.124023 0.05512,0.07717 0.07717,0.183279 0.01378,0.0689 0.01378,0.241157 v 0.899858 h -0.248046 v -0.890212 q 0,-0.151584 -0.02894,-0.225998 -0.02894,-0.07579 -0.103353,-0.119889 -0.07304,-0.04548 -0.172255,-0.04548 -0.158474,0 -0.274229,0.100597 -0.114377,0.100597 -0.114377,0.381716 v 0.799262 z"
           id="path1093" />
      </g>
      <g
         aria-label="kurzes Bein"
         id="g1117"
         style="font-size:2.82222px;line-height:1.25;font-family:Arial;-inkscape-font-specification:Arial;fill:#0000ff;stroke-width:0.264583">
        <path
           d="m 28.541475,27.118189 v -2.020203 h 0.248046 v 1.152039 l 0.587044,-0.595312 h 0.321083 l -0.559483,0.542947 0.615982,0.920529 h -0.305924 l -0.483691,-0.748274 -0.175011,0.16812 v 0.580154 z"
           style="text-align:end;text-anchor:end"
           id="path1097" />
        <path
           d="m 30.910321,27.118189 v -0.214974 q -0.170877,0.248047 -0.464399,0.248047 -0.129535,0 -0.242534,-0.04961 -0.111621,-0.04961 -0.166743,-0.124023 -0.05374,-0.07579 -0.07579,-0.184657 -0.01516,-0.07304 -0.01516,-0.23151 v -0.906749 h 0.248046 v 0.811664 q 0,0.194304 0.01516,0.261827 0.02343,0.09784 0.09922,0.154341 0.07579,0.05512 0.187413,0.05512 0.111621,0 0.209462,-0.0565 0.09784,-0.05788 0.137804,-0.155718 0.04134,-0.09922 0.04134,-0.286631 v -0.784104 h 0.248047 v 1.463476 z"
           style="text-align:end;text-anchor:end"
           id="path1099" />
        <path
           d="m 31.518035,27.118189 v -1.463476 h 0.223242 v 0.221864 q 0.08544,-0.155718 0.157096,-0.205327 0.07304,-0.04961 0.159853,-0.04961 0.125401,0 0.254936,0.07993 l -0.08544,0.230132 q -0.09095,-0.05374 -0.181901,-0.05374 -0.0813,0 -0.146072,0.04961 -0.06477,0.04823 -0.09233,0.135047 -0.04134,0.132292 -0.04134,0.289388 v 0.766189 z"
           style="text-align:end;text-anchor:end"
           id="path1101" />
        <path
           d="m 32.329699,27.118189 v -0.201194 l 0.931553,-1.069356 q -0.158474,0.0083 -0.279741,0.0083 H 32.38482 v -0.201194 h 1.196137 V 25.8187 l -0.792372,0.928797 -0.152962,0.169498 q 0.166743,-0.0124 0.312815,-0.0124 h 0.676616 v 0.213596 z"
           style="text-align:end;text-anchor:end"
           id="path1103" />
        <path
           d="m 34.873556,26.6469 0.256315,0.0317 q -0.06063,0.22462 -0.22462,0.348643 -0.163987,0.124024 -0.418924,0.124024 -0.321082,0 -0.509873,-0.19706 -0.187414,-0.198437 -0.187414,-0.555349 0,-0.369313 0.19017,-0.573263 0.190169,-0.203949 0.493337,-0.203949 0.293522,0 0.479557,0.199815 0.186035,0.199815 0.186035,0.562239 0,0.02205 -0.0014,0.06615 h -1.091406 q 0.01378,0.241156 0.136426,0.369314 0.122645,0.128157 0.305924,0.128157 0.136426,0 0.232889,-0.07166 0.09646,-0.07166 0.152962,-0.228754 z m -0.81442,-0.401009 h 0.817176 q -0.01654,-0.184657 -0.09371,-0.276985 -0.118511,-0.143316 -0.307302,-0.143316 -0.170877,0 -0.28801,0.114377 -0.115755,0.114377 -0.128157,0.305924 z"
           style="text-align:end;text-anchor:end"
           id="path1105" />
        <path
           d="m 35.342088,26.681351 0.245291,-0.03858 q 0.02067,0.14745 0.114377,0.225998 0.09508,0.07855 0.264583,0.07855 0.170877,0 0.253559,-0.0689 0.08268,-0.07028 0.08268,-0.163986 0,-0.08406 -0.07304,-0.132292 -0.05099,-0.03307 -0.253559,-0.08406 -0.272851,-0.0689 -0.37896,-0.118511 -0.104731,-0.05099 -0.159852,-0.139182 -0.05374,-0.08957 -0.05374,-0.197059 0,-0.09784 0.0441,-0.180523 0.04548,-0.08406 0.122645,-0.139182 0.05788,-0.04272 0.157096,-0.07166 0.100597,-0.03032 0.214974,-0.03032 0.172255,0 0.30179,0.04961 0.130914,0.04961 0.192925,0.135047 0.06201,0.08406 0.08544,0.225999 l -0.242535,0.03307 q -0.01654,-0.112999 -0.09646,-0.176388 -0.07855,-0.06339 -0.223242,-0.06339 -0.170877,0 -0.243913,0.0565 -0.07304,0.0565 -0.07304,0.132291 0,0.04823 0.03032,0.08682 0.03032,0.03996 0.09508,0.06615 0.03721,0.01378 0.219108,0.06339 0.263205,0.07028 0.366558,0.115755 0.104731,0.0441 0.163987,0.129536 0.05926,0.08544 0.05926,0.212217 0,0.124024 -0.07304,0.234267 -0.07166,0.108865 -0.208083,0.169498 -0.136426,0.05926 -0.308681,0.05926 -0.285253,0 -0.435459,-0.118511 -0.148829,-0.118512 -0.19017,-0.3514 z"
           style="text-align:end;text-anchor:end"
           id="path1107" />
        <path
           d="m 31.224513,30.645964 v -2.020202 h 0.757921 q 0.23151,0 0.370692,0.06201 0.140559,0.06063 0.219107,0.188791 0.07993,0.12678 0.07993,0.265961 0,0.129536 -0.07028,0.243913 -0.07028,0.114377 -0.212218,0.184657 0.183279,0.05374 0.28112,0.183279 0.09922,0.129535 0.09922,0.305924 0,0.141938 -0.06063,0.264583 -0.05926,0.121268 -0.14745,0.187413 -0.08819,0.06615 -0.221864,0.100597 -0.132292,0.03307 -0.325217,0.03307 z m 0.267339,-1.171332 h 0.436838 q 0.177767,0 0.254937,-0.02343 0.101975,-0.03032 0.152962,-0.100597 0.05237,-0.07028 0.05237,-0.176389 0,-0.100596 -0.04823,-0.176388 -0.04823,-0.07717 -0.137803,-0.104731 -0.08957,-0.02894 -0.307303,-0.02894 h -0.403765 z m 0,0.932932 h 0.502984 q 0.129535,0 0.181901,-0.0096 0.09233,-0.01654 0.15434,-0.05512 0.06201,-0.03859 0.101975,-0.111621 0.03996,-0.07441 0.03996,-0.170877 0,-0.112999 -0.05788,-0.195681 -0.05788,-0.08406 -0.16123,-0.117133 -0.101975,-0.03445 -0.2949,-0.03445 h -0.467155 z"
           style="text-align:end;text-anchor:end"
           id="path1109" />
        <path
           d="m 34.088074,30.174675 0.256315,0.03169 q -0.06063,0.22462 -0.22462,0.348644 -0.163986,0.124023 -0.418923,0.124023 -0.321083,0 -0.509874,-0.197059 -0.187413,-0.198438 -0.187413,-0.555349 0,-0.369314 0.190169,-0.573264 0.190169,-0.203949 0.493337,-0.203949 0.293522,0 0.479557,0.199815 0.186035,0.199815 0.186035,0.562239 0,0.02205 -0.0014,0.06615 h -1.091405 q 0.01378,0.241156 0.136426,0.369314 0.122645,0.128157 0.305924,0.128157 0.136426,0 0.232888,-0.07166 0.09646,-0.07166 0.152962,-0.228754 z m -0.81442,-0.401009 h 0.817176 q -0.01654,-0.184657 -0.09371,-0.276985 -0.118511,-0.143316 -0.307302,-0.143316 -0.170877,0 -0.28801,0.114377 -0.115755,0.114377 -0.128158,0.305924 z"
           style="text-align:end;text-anchor:end"
           id="path1111" />
        <path
           d="m 34.657204,28.911015 v -0.285253 h 0.248046 v 0.285253 z m 0,1.734949 v -1.463475 h 0.248046 v 1.463475 z"
           style="text-align:end;text-anchor:end"
           id="path1113" />
        <path
           d="m 35.282833,30.645964 v -1.463475 h 0.223242 v 0.208083 q 0.16123,-0.241156 0.465776,-0.241156 0.132292,0 0.242535,0.04823 0.111621,0.04685 0.166742,0.124023 0.05512,0.07717 0.07717,0.183279 0.01378,0.0689 0.01378,0.241157 v 0.899858 h -0.248047 v -0.890212 q 0,-0.151584 -0.02894,-0.225998 -0.02894,-0.07579 -0.103353,-0.119889 -0.07304,-0.04548 -0.172254,-0.04548 -0.158475,0 -0.27423,0.100597 -0.114377,0.100597 -0.114377,0.381716 v 0.799262 z"
           style="text-align:end;text-anchor:end"
           id="path1115" />
      </g>
      <g
         aria-label="-"
         id="g1121"
         style="font-size:6.35px;line-height:1.25;font-family:Arial;-inkscape-font-specification:Arial;fill:#0000ff;stroke-width:0.264583">
        <path
           d="m 34.526222,22.999008 v -0.561206 h 1.714624 v 0.561206 z"
           id="path1119" />
      </g>
      <g
         aria-label="+"
         id="g1125"
         style="font-size:6.35px;line-height:1.25;font-family:Arial;-inkscape-font-specification:Arial;fill:#0000ff;stroke-width:0.264583">
        <path
           d="M 46.774503,24.22064 V 22.974204 H 45.53737 v -0.520898 h 1.237133 v -1.237134 h 0.5271 v 1.237134 h 1.237134 v 0.520898 h -1.237134 v 1.246436 z"
           id="path1123" />
      </g>
      <g
         aria-label="-"
         id="g1129"
         style="font-size:6.35px;line-height:1.25;font-family:Arial;-inkscape-font-specification:Arial;fill:#0000ff;stroke-width:0.264583">
        <path
           d="M 40.41053,89.495316 V 88.93411 h 1.714624 v 0.561206 z"
           id="path1127" />
      </g>
      <g
         aria-label="+"
         id="g1133"
         style="font-size:6.35px;line-height:1.25;font-family:Arial;-inkscape-font-specification:Arial;fill:#0000ff;stroke-width:0.264583">
        <path
           d="m 117.50645,90.716943 v -1.246435 h -1.23714 v -0.520899 h 1.23714 v -1.237133 h 0.5271 v 1.237133 h 1.23713 v 0.520899 h -1.23713 v 1.246435 z"
           id="path1131" />
      </g>
      <g
         aria-label="https://github.com/vektorious/cm-flashlight"
         transform="matrix(0,0.80832606,-0.80832606,0,12.224676,10.534389)"
         id="g1222"
         style="font-size:2.82222px;line-height:1.25;font-family:Arial;-inkscape-font-specification:Arial;fill:#0000ff;stroke-width:0.264583">
        <path
           d="m 29.313,-62.581936 v -2.020202 h 0.248046 v 0.724847 q 0.173633,-0.201193 0.438216,-0.201193 0.162608,0 0.282498,0.06477 0.119889,0.06339 0.170876,0.176388 0.05237,0.112999 0.05237,0.327973 v 0.927419 h -0.248047 v -0.927419 q 0,-0.186035 -0.0813,-0.270095 -0.07993,-0.08544 -0.227376,-0.08544 -0.110243,0 -0.208084,0.05788 -0.09646,0.0565 -0.137804,0.15434 -0.04134,0.09784 -0.04134,0.270096 v 0.800639 z"
           id="path1135" />
        <path
           d="m 31.424153,-62.8038 0.03583,0.219108 q -0.104731,0.02205 -0.187414,0.02205 -0.135047,0 -0.209461,-0.04272 -0.07441,-0.04272 -0.104731,-0.111621 -0.03032,-0.07028 -0.03032,-0.293521 v -0.841981 h -0.181901 v -0.192925 h 0.181901 v -0.362424 l 0.246669,-0.148828 v 0.511252 h 0.249425 v 0.192925 h -0.249425 v 0.855761 q 0,0.106109 0.0124,0.136426 0.01378,0.03032 0.04272,0.04823 0.03032,0.01791 0.08544,0.01791 0.04134,0 0.108865,-0.0096 z"
           id="path1137" />
        <path
           d="m 32.208256,-62.8038 0.03583,0.219108 q -0.104731,0.02205 -0.187413,0.02205 -0.135048,0 -0.209462,-0.04272 -0.07441,-0.04272 -0.104731,-0.111621 -0.03032,-0.07028 -0.03032,-0.293521 v -0.841981 h -0.181901 v -0.192925 h 0.181901 v -0.362424 l 0.246669,-0.148828 v 0.511252 h 0.249425 v 0.192925 h -0.249425 v 0.855761 q 0,0.106109 0.0124,0.136426 0.01378,0.03032 0.04272,0.04823 0.03032,0.01791 0.08544,0.01791 0.04134,0 0.108865,-0.0096 z"
           id="path1139" />
        <path
           d="m 32.45079,-62.021075 v -2.024336 h 0.225998 v 0.190169 q 0.07993,-0.111621 0.180523,-0.166743 0.100597,-0.0565 0.243913,-0.0565 0.187413,0 0.330729,0.09646 0.143316,0.09646 0.216352,0.272852 0.07304,0.17501 0.07304,0.384472 0,0.22462 -0.08131,0.405143 -0.07993,0.179145 -0.234266,0.275607 -0.152962,0.09509 -0.322461,0.09509 -0.124023,0 -0.223242,-0.05237 -0.09784,-0.05237 -0.16123,-0.132292 v 0.712445 z m 0.22462,-1.28433 q 0,0.282497 0.114377,0.417545 0.114377,0.135048 0.276986,0.135048 0.165364,0 0.282497,-0.139182 0.118512,-0.14056 0.118512,-0.434082 0,-0.279741 -0.115755,-0.418923 -0.114378,-0.139182 -0.27423,-0.139182 -0.158474,0 -0.281119,0.148828 -0.121268,0.14745 -0.121268,0.429948 z"
           id="path1141" />
        <path
           d="m 33.921156,-63.018774 0.245291,-0.03858 q 0.02067,0.14745 0.114377,0.225998 0.09508,0.07855 0.264583,0.07855 0.170876,0 0.253559,-0.0689 0.08268,-0.07028 0.08268,-0.163987 0,-0.08406 -0.07304,-0.132291 -0.05099,-0.03307 -0.253559,-0.08406 -0.272851,-0.0689 -0.37896,-0.118511 -0.104731,-0.05099 -0.159852,-0.139182 -0.05374,-0.08957 -0.05374,-0.197059 0,-0.09784 0.0441,-0.180523 0.04548,-0.08406 0.122646,-0.139181 0.05788,-0.04272 0.157096,-0.07166 0.100597,-0.03032 0.214974,-0.03032 0.172254,0 0.30179,0.04961 0.130913,0.04961 0.192925,0.135048 0.06201,0.08406 0.08544,0.225998 l -0.242534,0.03307 q -0.01654,-0.112999 -0.09646,-0.176389 -0.07855,-0.06339 -0.223242,-0.06339 -0.170877,0 -0.243912,0.0565 -0.07304,0.0565 -0.07304,0.132291 0,0.04823 0.03032,0.08682 0.03032,0.03996 0.09509,0.06615 0.03721,0.01378 0.219108,0.06339 0.263205,0.07028 0.366558,0.115755 0.104731,0.0441 0.163986,0.129536 0.05926,0.08544 0.05926,0.212218 0,0.124023 -0.07304,0.234266 -0.07166,0.108865 -0.208084,0.169498 -0.136426,0.05926 -0.30868,0.05926 -0.285254,0 -0.43546,-0.118511 -0.148828,-0.118511 -0.190169,-0.3514 z"
           id="path1143" />
        <path
           d="m 35.500386,-63.762914 v -0.282497 h 0.282498 v 0.282497 z m 0,1.180978 v -0.282497 h 0.282498 v 0.282497 z"
           id="path1145" />
        <path
           d="m 36.029553,-62.547485 0.585666,-2.089104 h 0.198437 l -0.584288,2.089104 z"
           id="path1147" />
        <path
           d="m 36.813656,-62.547485 0.585666,-2.089104 h 0.198437 l -0.584288,2.089104 z"
           id="path1149" />
        <path
           d="m 37.738319,-62.460669 0.241157,0.03583 q 0.01516,0.111621 0.08406,0.162609 0.09233,0.0689 0.252181,0.0689 0.172254,0 0.265961,-0.0689 0.09371,-0.0689 0.126779,-0.192925 0.01929,-0.07579 0.01791,-0.318327 -0.162609,0.191547 -0.405143,0.191547 -0.30179,0 -0.467155,-0.21773 -0.165364,-0.21773 -0.165364,-0.522276 0,-0.209461 0.07579,-0.38585 0.07579,-0.177767 0.219108,-0.27423 0.144694,-0.09646 0.338997,-0.09646 0.259071,0 0.427191,0.209461 v -0.176388 h 0.228754 v 1.265038 q 0,0.341753 -0.07028,0.483691 -0.0689,0.143316 -0.220486,0.225998 -0.150206,0.08268 -0.370692,0.08268 -0.261827,0 -0.423058,-0.118511 -0.16123,-0.117133 -0.155718,-0.354156 z m 0.205328,-0.879187 q 0,0.288009 0.114377,0.420301 0.114377,0.132292 0.286631,0.132292 0.170877,0 0.286632,-0.130914 0.115755,-0.132292 0.115755,-0.413411 0,-0.268717 -0.119889,-0.405143 -0.118511,-0.136426 -0.286632,-0.136426 -0.165364,0 -0.281119,0.135048 -0.115755,0.13367 -0.115755,0.398253 z"
           id="path1151" />
        <path
           d="m 39.354756,-64.316885 v -0.285253 h 0.248047 v 0.285253 z m 0,1.734949 v -1.463475 h 0.248047 v 1.463475 z"
           id="path1153" />
        <path
           d="m 40.521954,-62.8038 0.03583,0.219108 q -0.104731,0.02205 -0.187413,0.02205 -0.135047,0 -0.209461,-0.04272 -0.07441,-0.04272 -0.104731,-0.111621 -0.03032,-0.07028 -0.03032,-0.293521 v -0.841981 H 39.84396 v -0.192925 h 0.181901 v -0.362424 l 0.246669,-0.148828 v 0.511252 h 0.249424 v 0.192925 H 40.27253 v 0.855761 q 0,0.106109 0.0124,0.136426 0.01378,0.03032 0.04272,0.04823 0.03032,0.01791 0.08544,0.01791 0.04134,0 0.108865,-0.0096 z"
           id="path1155" />
        <path
           d="m 40.764488,-62.581936 v -2.020202 h 0.248047 v 0.724847 q 0.173632,-0.201193 0.438216,-0.201193 0.162608,0 0.282497,0.06477 0.119889,0.06339 0.170877,0.176388 0.05237,0.112999 0.05237,0.327973 v 0.927419 h -0.248046 v -0.927419 q 0,-0.186035 -0.08131,-0.270095 -0.07993,-0.08544 -0.227376,-0.08544 -0.110243,0 -0.208083,0.05788 -0.09646,0.0565 -0.137804,0.15434 -0.04134,0.09784 -0.04134,0.270096 v 0.800639 z"
           id="path1157" />
        <path
           d="m 43.293187,-62.581936 v -0.214974 q -0.170877,0.248047 -0.464399,0.248047 -0.129535,0 -0.242534,-0.04961 -0.111621,-0.04961 -0.166743,-0.124024 -0.05374,-0.07579 -0.07579,-0.184657 -0.01516,-0.07304 -0.01516,-0.23151 v -0.906748 h 0.248046 v 0.811664 q 0,0.194303 0.01516,0.261827 0.02343,0.09784 0.09922,0.15434 0.07579,0.05512 0.187413,0.05512 0.111621,0 0.209461,-0.0565 0.09784,-0.05788 0.137804,-0.155718 0.04134,-0.09922 0.04134,-0.286632 v -0.784103 h 0.248047 v 1.463475 z"
           id="path1159" />
        <path
           d="M 44.132412,-62.581936 H 43.90228 v -2.020202 h 0.248046 v 0.720713 q 0.157097,-0.197059 0.401009,-0.197059 0.135048,0 0.254937,0.05512 0.121267,0.05374 0.198437,0.152962 0.07855,0.09784 0.122646,0.237023 0.0441,0.139182 0.0441,0.297656 0,0.376204 -0.186035,0.581531 -0.186035,0.205328 -0.446484,0.205328 -0.259071,0 -0.406521,-0.216352 z m -0.0028,-0.742762 q 0,0.263205 0.07166,0.380338 0.117133,0.191548 0.316948,0.191548 0.162609,0 0.28112,-0.14056 0.118511,-0.141938 0.118511,-0.42168 0,-0.286631 -0.114377,-0.423057 -0.112999,-0.136426 -0.274229,-0.136426 -0.162609,0 -0.28112,0.141938 -0.118511,0.14056 -0.118511,0.407899 z"
           id="path1161" />
        <path
           d="m 45.543522,-62.581936 v -0.282497 h 0.282497 v 0.282497 z"
           id="path1163" />
        <path
           d="m 47.212325,-63.117992 0.243912,0.03169 q -0.03996,0.25218 -0.205327,0.395496 -0.163987,0.141938 -0.403765,0.141938 -0.300412,0 -0.483691,-0.195681 -0.181901,-0.19706 -0.181901,-0.563617 0,-0.237023 0.07855,-0.41479 0.07855,-0.177766 0.238401,-0.265961 0.16123,-0.08957 0.350021,-0.08957 0.2384,0 0.389985,0.121267 0.151584,0.119889 0.194303,0.341753 l -0.241157,0.03721 q -0.03445,-0.14745 -0.122645,-0.221864 -0.08682,-0.07441 -0.21084,-0.07441 -0.187413,0 -0.304546,0.135048 -0.117133,0.13367 -0.117133,0.424435 0,0.2949 0.112999,0.42857 0.112999,0.13367 0.2949,0.13367 0.146072,0 0.243912,-0.08957 0.09784,-0.08957 0.124024,-0.275607 z"
           id="path1165" />
        <path
           d="m 47.576126,-63.313674 q 0,-0.406521 0.225999,-0.602202 0.188791,-0.162608 0.460264,-0.162608 0.30179,0 0.493337,0.198437 0.191547,0.197059 0.191547,0.545703 0,0.282497 -0.08544,0.445106 -0.08406,0.16123 -0.246668,0.250803 -0.161231,0.08957 -0.352778,0.08957 -0.307302,0 -0.497471,-0.197059 -0.188792,-0.19706 -0.188792,-0.567752 z m 0.254937,0 q 0,0.28112 0.122646,0.42168 0.122645,0.139182 0.30868,0.139182 0.184657,0 0.307302,-0.14056 0.122646,-0.14056 0.122646,-0.42857 0,-0.271473 -0.124024,-0.410655 -0.122645,-0.14056 -0.305924,-0.14056 -0.186035,0 -0.30868,0.139182 -0.122646,0.139182 -0.122646,0.420301 z"
           id="path1167" />
        <path
           d="m 49.238039,-62.581936 v -1.463475 h 0.221864 v 0.205327 q 0.0689,-0.107487 0.183279,-0.172254 0.114377,-0.06615 0.260449,-0.06615 0.162608,0 0.265961,0.06752 0.104731,0.06752 0.14745,0.188791 0.173633,-0.256315 0.451996,-0.256315 0.21773,0 0.334863,0.121267 0.117133,0.119889 0.117133,0.370692 v 1.004589 h -0.246668 v -0.921907 q 0,-0.148828 -0.02481,-0.213595 -0.02343,-0.06615 -0.08682,-0.106109 -0.06339,-0.03996 -0.148828,-0.03996 -0.15434,0 -0.256315,0.103352 -0.101975,0.101975 -0.101975,0.327973 v 0.850249 H 50.10758 v -0.950846 q 0,-0.165364 -0.06063,-0.248046 -0.06063,-0.08268 -0.198438,-0.08268 -0.10473,0 -0.194303,0.05512 -0.08819,0.05512 -0.128157,0.16123 -0.03996,0.106109 -0.03996,0.305925 v 0.759298 z"
           id="path1169" />
        <path
           d="m 51.402935,-62.547485 0.585666,-2.089104 h 0.198437 l -0.584288,2.089104 z"
           id="path1171" />
        <path
           d="m 52.779594,-62.581936 -0.556727,-1.463475 h 0.261827 l 0.314193,0.876431 q 0.05099,0.141938 0.09371,0.2949 0.03307,-0.115755 0.09233,-0.278363 l 0.325217,-0.892968 h 0.254937 l -0.553971,1.463475 z"
           id="path1173" />
        <path
           d="m 54.786016,-63.053225 0.256315,0.03169 q -0.06063,0.22462 -0.22462,0.348644 -0.163986,0.124023 -0.418923,0.124023 -0.321083,0 -0.509874,-0.197059 -0.187413,-0.198438 -0.187413,-0.555349 0,-0.369314 0.190169,-0.573264 0.190169,-0.203949 0.493338,-0.203949 0.293521,0 0.479556,0.199815 0.186036,0.199816 0.186036,0.562239 0,0.02205 -0.0014,0.06615 h -1.091405 q 0.01378,0.241157 0.136426,0.369314 0.122645,0.128158 0.305924,0.128158 0.136426,0 0.232888,-0.07166 0.09646,-0.07166 0.152962,-0.228755 z m -0.81442,-0.401008 h 0.817176 q -0.01654,-0.184657 -0.09371,-0.276986 -0.118511,-0.143316 -0.307302,-0.143316 -0.170877,0 -0.28801,0.114377 -0.115755,0.114377 -0.128158,0.305925 z"
           id="path1175" />
        <path
           d="m 55.355145,-62.581936 v -2.020202 h 0.248047 v 1.152039 l 0.587044,-0.595312 h 0.321082 l -0.559483,0.542946 0.615983,0.920529 h -0.305924 l -0.483691,-0.748274 -0.175011,0.16812 v 0.580154 z"
           id="path1177" />
        <path
           d="m 57.306448,-62.8038 0.03583,0.219108 q -0.104731,0.02205 -0.187413,0.02205 -0.135048,0 -0.209462,-0.04272 -0.07441,-0.04272 -0.104731,-0.111621 -0.03032,-0.07028 -0.03032,-0.293521 v -0.841981 h -0.181901 v -0.192925 h 0.181901 v -0.362424 l 0.246669,-0.148828 v 0.511252 h 0.249425 v 0.192925 h -0.249425 v 0.855761 q 0,0.106109 0.0124,0.136426 0.01378,0.03032 0.04272,0.04823 0.03032,0.01791 0.08544,0.01791 0.04134,0 0.108865,-0.0096 z"
           id="path1179" />
        <path
           d="m 57.456652,-63.313674 q 0,-0.406521 0.225998,-0.602202 0.188791,-0.162608 0.460265,-0.162608 0.30179,0 0.493337,0.198437 0.191547,0.197059 0.191547,0.545703 0,0.282497 -0.08544,0.445106 -0.08406,0.16123 -0.246669,0.250803 -0.16123,0.08957 -0.352777,0.08957 -0.307303,0 -0.497472,-0.197059 -0.188791,-0.19706 -0.188791,-0.567752 z m 0.254937,0 q 0,0.28112 0.122645,0.42168 0.122646,0.139182 0.308681,0.139182 0.184657,0 0.307302,-0.14056 0.122645,-0.14056 0.122645,-0.42857 0,-0.271473 -0.124023,-0.410655 -0.122645,-0.14056 -0.305924,-0.14056 -0.186035,0 -0.308681,0.139182 -0.122645,0.139182 -0.122645,0.420301 z"
           id="path1181" />
        <path
           d="m 59.11581,-62.581936 v -1.463475 h 0.223242 v 0.221864 q 0.08544,-0.155719 0.157097,-0.205328 0.07304,-0.04961 0.159852,-0.04961 0.125401,0 0.254937,0.07993 l -0.08544,0.230132 q -0.09095,-0.05374 -0.1819,-0.05374 -0.08131,0 -0.146072,0.04961 -0.06477,0.04823 -0.09233,0.135048 -0.04134,0.132291 -0.04134,0.289387 v 0.766189 z"
           id="path1183" />
        <path
           d="m 60.059766,-64.316885 v -0.285253 h 0.248046 v 0.285253 z m 0,1.734949 v -1.463475 h 0.248046 v 1.463475 z"
           id="path1185" />
        <path
           d="m 60.593066,-63.313674 q 0,-0.406521 0.225998,-0.602202 0.188791,-0.162608 0.460264,-0.162608 0.30179,0 0.493337,0.198437 0.191548,0.197059 0.191548,0.545703 0,0.282497 -0.08544,0.445106 -0.08406,0.16123 -0.246668,0.250803 -0.161231,0.08957 -0.352778,0.08957 -0.307302,0 -0.497471,-0.197059 -0.188791,-0.19706 -0.188791,-0.567752 z m 0.254937,0 q 0,0.28112 0.122645,0.42168 0.122645,0.139182 0.30868,0.139182 0.184657,0 0.307302,-0.14056 0.122646,-0.14056 0.122646,-0.42857 0,-0.271473 -0.124024,-0.410655 -0.122645,-0.14056 -0.305924,-0.14056 -0.186035,0 -0.30868,0.139182 -0.122645,0.139182 -0.122645,0.420301 z"
           id="path1187" />
        <path
           d="m 63.214092,-62.581936 v -0.214974 q -0.170877,0.248047 -0.464399,0.248047 -0.129535,0 -0.242534,-0.04961 -0.111621,-0.04961 -0.166743,-0.124024 -0.05374,-0.07579 -0.07579,-0.184657 -0.01516,-0.07304 -0.01516,-0.23151 v -0.906748 h 0.248047 v 0.811664 q 0,0.194303 0.01516,0.261827 0.02343,0.09784 0.09922,0.15434 0.07579,0.05512 0.187413,0.05512 0.111621,0 0.209461,-0.0565 0.09784,-0.05788 0.137804,-0.155718 0.04134,-0.09922 0.04134,-0.286632 v -0.784103 h 0.248047 v 1.463475 z"
           id="path1189" />
        <path
           d="m 63.725343,-63.018774 0.245291,-0.03858 q 0.02067,0.14745 0.114377,0.225998 0.09509,0.07855 0.264583,0.07855 0.170877,0 0.253559,-0.0689 0.08268,-0.07028 0.08268,-0.163987 0,-0.08406 -0.07304,-0.132291 -0.05099,-0.03307 -0.253559,-0.08406 -0.272851,-0.0689 -0.37896,-0.118511 -0.104731,-0.05099 -0.159852,-0.139182 -0.05374,-0.08957 -0.05374,-0.197059 0,-0.09784 0.0441,-0.180523 0.04547,-0.08406 0.122645,-0.139181 0.05788,-0.04272 0.157096,-0.07166 0.100597,-0.03032 0.214974,-0.03032 0.172255,0 0.30179,0.04961 0.130914,0.04961 0.192925,0.135048 0.06201,0.08406 0.08544,0.225998 l -0.242535,0.03307 q -0.01654,-0.112999 -0.09646,-0.176389 -0.07855,-0.06339 -0.223242,-0.06339 -0.170876,0 -0.243912,0.0565 -0.07304,0.0565 -0.07304,0.132291 0,0.04823 0.03032,0.08682 0.03032,0.03996 0.09508,0.06615 0.03721,0.01378 0.219108,0.06339 0.263205,0.07028 0.366558,0.115755 0.104731,0.0441 0.163986,0.129536 0.05926,0.08544 0.05926,0.212218 0,0.124023 -0.07304,0.234266 -0.07166,0.108865 -0.208084,0.169498 -0.136425,0.05926 -0.30868,0.05926 -0.285254,0 -0.43546,-0.118511 -0.148828,-0.118511 -0.190169,-0.3514 z"
           id="path1191" />
        <path
           d="m 65.049637,-62.547485 0.585666,-2.089104 h 0.198437 l -0.584288,2.089104 z"
           id="path1193" />
        <path
           d="m 66.974755,-63.117992 0.243913,0.03169 q -0.03996,0.25218 -0.205328,0.395496 -0.163986,0.141938 -0.403765,0.141938 -0.300412,0 -0.483691,-0.195681 -0.181901,-0.19706 -0.181901,-0.563617 0,-0.237023 0.07855,-0.41479 0.07855,-0.177766 0.238401,-0.265961 0.16123,-0.08957 0.350021,-0.08957 0.238401,0 0.389985,0.121267 0.151584,0.119889 0.194303,0.341753 l -0.241157,0.03721 q -0.03445,-0.14745 -0.122645,-0.221864 -0.08682,-0.07441 -0.21084,-0.07441 -0.187413,0 -0.304546,0.135048 -0.117133,0.13367 -0.117133,0.424435 0,0.2949 0.112999,0.42857 0.112999,0.13367 0.2949,0.13367 0.146072,0 0.243913,-0.08957 0.09784,-0.08957 0.124023,-0.275607 z"
           id="path1195" />
        <path
           d="m 67.430885,-62.581936 v -1.463475 h 0.221864 v 0.205327 q 0.0689,-0.107487 0.183279,-0.172254 0.114377,-0.06615 0.260449,-0.06615 0.162609,0 0.265961,0.06752 0.104731,0.06752 0.14745,0.188791 0.173633,-0.256315 0.451996,-0.256315 0.21773,0 0.334863,0.121267 0.117134,0.119889 0.117134,0.370692 v 1.004589 h -0.246669 v -0.921907 q 0,-0.148828 -0.02481,-0.213595 -0.02343,-0.06615 -0.08682,-0.106109 -0.06339,-0.03996 -0.148828,-0.03996 -0.15434,0 -0.256315,0.103352 -0.101975,0.101975 -0.101975,0.327973 v 0.850249 h -0.248046 v -0.950846 q 0,-0.165364 -0.06063,-0.248046 -0.06063,-0.08268 -0.198437,-0.08268 -0.104731,0 -0.194304,0.05512 -0.08819,0.05512 -0.128157,0.16123 -0.03996,0.106109 -0.03996,0.305925 v 0.759298 z"
           id="path1197" />
        <path
           d="m 69.685356,-63.188272 v -0.249425 h 0.762054 v 0.249425 z"
           id="path1199" />
        <path
           d="m 70.780893,-62.581936 v -1.27055 h -0.219108 v -0.192925 h 0.219108 v -0.155719 q 0,-0.14745 0.02618,-0.219107 0.03583,-0.09646 0.125401,-0.155719 0.09095,-0.06063 0.253559,-0.06063 0.104731,0 0.23151,0.0248 l -0.03721,0.216352 q -0.07717,-0.01378 -0.146072,-0.01378 -0.112999,0 -0.159852,0.04823 -0.04685,0.04823 -0.04685,0.180523 v 0.135048 h 0.285254 v 0.192925 h -0.285254 v 1.27055 z"
           id="path1201" />
        <path
           d="m 71.500229,-62.581936 v -2.020202 h 0.248047 v 2.020202 z"
           id="path1203" />
        <path
           d="m 73.087727,-62.762459 q -0.137803,0.117133 -0.265961,0.165365 -0.126779,0.04823 -0.272851,0.04823 -0.241157,0 -0.370692,-0.117133 -0.129536,-0.118511 -0.129536,-0.30179 0,-0.107487 0.04823,-0.195682 0.04961,-0.08957 0.128157,-0.143315 0.07993,-0.05374 0.179145,-0.08131 0.07304,-0.01929 0.220486,-0.03721 0.300412,-0.03583 0.44235,-0.08544 0.0014,-0.05099 0.0014,-0.06477 0,-0.151584 -0.07028,-0.213595 -0.09508,-0.08406 -0.282498,-0.08406 -0.17501,0 -0.259071,0.06201 -0.08268,0.06063 -0.122645,0.216352 l -0.242535,-0.03307 q 0.03307,-0.155718 0.108865,-0.250803 0.07579,-0.09646 0.219108,-0.14745 0.143316,-0.05237 0.332107,-0.05237 0.187413,0 0.304546,0.0441 0.117134,0.0441 0.172255,0.111621 0.05512,0.06615 0.07717,0.168121 0.0124,0.06339 0.0124,0.228754 v 0.330729 q 0,0.345887 0.01516,0.438215 0.01654,0.09095 0.06339,0.175011 h -0.259071 q -0.03858,-0.07717 -0.04961,-0.180523 z m -0.02067,-0.553971 q -0.135048,0.05512 -0.405143,0.09371 -0.152962,0.02205 -0.216352,0.04961 -0.06339,0.02756 -0.09784,0.0813 -0.03445,0.05237 -0.03445,0.117134 0,0.09922 0.07441,0.165364 0.07579,0.06615 0.220486,0.06615 0.143316,0 0.254937,-0.06201 0.111621,-0.06339 0.163987,-0.172255 0.03996,-0.08406 0.03996,-0.248046 z"
           id="path1205" />
        <path
           d="m 73.603113,-63.018774 0.24529,-0.03858 q 0.02067,0.14745 0.114377,0.225998 0.09509,0.07855 0.264584,0.07855 0.170876,0 0.253558,-0.0689 0.08268,-0.07028 0.08268,-0.163987 0,-0.08406 -0.07304,-0.132291 -0.05099,-0.03307 -0.253559,-0.08406 -0.272852,-0.0689 -0.37896,-0.118511 -0.104731,-0.05099 -0.159853,-0.139182 -0.05374,-0.08957 -0.05374,-0.197059 0,-0.09784 0.0441,-0.180523 0.04547,-0.08406 0.122645,-0.139181 0.05788,-0.04272 0.157097,-0.07166 0.100596,-0.03032 0.214973,-0.03032 0.172255,0 0.301791,0.04961 0.130913,0.04961 0.192925,0.135048 0.06201,0.08406 0.08544,0.225998 l -0.242535,0.03307 q -0.01654,-0.112999 -0.09646,-0.176389 -0.07855,-0.06339 -0.223242,-0.06339 -0.170877,0 -0.243913,0.0565 -0.07304,0.0565 -0.07304,0.132291 0,0.04823 0.03032,0.08682 0.03032,0.03996 0.09509,0.06615 0.03721,0.01378 0.219108,0.06339 0.263205,0.07028 0.366557,0.115755 0.104731,0.0441 0.163987,0.129536 0.05925,0.08544 0.05925,0.212218 0,0.124023 -0.07303,0.234266 -0.07166,0.108865 -0.208084,0.169498 -0.136426,0.05926 -0.30868,0.05926 -0.285254,0 -0.43546,-0.118511 -0.148828,-0.118511 -0.190169,-0.3514 z"
           id="path1207" />
        <path
           d="m 75.113445,-62.581936 v -2.020202 h 0.248047 v 0.724847 q 0.173633,-0.201193 0.438216,-0.201193 0.162608,0 0.282497,0.06477 0.119889,0.06339 0.170877,0.176388 0.05236,0.112999 0.05236,0.327973 v 0.927419 h -0.248046 v -0.927419 q 0,-0.186035 -0.08131,-0.270095 -0.07993,-0.08544 -0.227376,-0.08544 -0.110243,0 -0.208083,0.05788 -0.09646,0.0565 -0.137804,0.15434 -0.04134,0.09784 -0.04134,0.270096 v 0.800639 z"
           id="path1209" />
        <path
           d="m 76.677517,-62.581936 v -2.020202 h 0.248047 v 2.020202 z"
           id="path1212" />
        <path
           d="m 77.311414,-64.316885 v -0.285253 h 0.248046 v 0.285253 z m 0,1.734949 v -1.463475 h 0.248046 v 1.463475 z"
           id="path1214" />
        <path
           d="m 77.891567,-62.460669 0.241156,0.03583 q 0.01516,0.111621 0.08406,0.162609 0.09233,0.0689 0.25218,0.0689 0.172255,0 0.265962,-0.0689 0.09371,-0.0689 0.126779,-0.192925 0.01929,-0.07579 0.01792,-0.318327 -0.162609,0.191547 -0.405143,0.191547 -0.301791,0 -0.467155,-0.21773 -0.165364,-0.21773 -0.165364,-0.522276 0,-0.209461 0.07579,-0.38585 0.07579,-0.177767 0.219107,-0.27423 0.144694,-0.09646 0.338998,-0.09646 0.259071,0 0.427191,0.209461 v -0.176388 H 79.1318 v 1.265038 q 0,0.341753 -0.07028,0.483691 -0.0689,0.143316 -0.220486,0.225998 -0.150206,0.08268 -0.370692,0.08268 -0.261827,0 -0.423057,-0.118511 -0.16123,-0.117133 -0.155718,-0.354156 z m 0.205327,-0.879187 q 0,0.288009 0.114377,0.420301 0.114378,0.132292 0.286632,0.132292 0.170877,0 0.286632,-0.130914 0.115755,-0.132292 0.115755,-0.413411 0,-0.268717 -0.119889,-0.405143 -0.118511,-0.136426 -0.286632,-0.136426 -0.165364,0 -0.281119,0.135048 -0.115756,0.13367 -0.115756,0.398253 z"
           id="path1216" />
        <path
           d="m 79.506626,-62.581936 v -2.020202 h 0.248047 v 0.724847 q 0.173632,-0.201193 0.438215,-0.201193 0.162609,0 0.282498,0.06477 0.119889,0.06339 0.170877,0.176388 0.05236,0.112999 0.05236,0.327973 v 0.927419 h -0.248047 v -0.927419 q 0,-0.186035 -0.0813,-0.270095 -0.07993,-0.08544 -0.227376,-0.08544 -0.110243,0 -0.208083,0.05788 -0.09646,0.0565 -0.137804,0.15434 -0.04134,0.09784 -0.04134,0.270096 v 0.800639 z"
           id="path1218" />
        <path
           d="m 81.617778,-62.8038 0.03583,0.219108 q -0.10473,0.02205 -0.187413,0.02205 -0.135047,0 -0.209461,-0.04272 -0.07441,-0.04272 -0.104731,-0.111621 -0.03032,-0.07028 -0.03032,-0.293521 v -0.841981 h -0.181901 v -0.192925 h 0.181901 v -0.362424 l 0.246669,-0.148828 v 0.511252 h 0.249424 v 0.192925 h -0.249424 v 0.855761 q 0,0.106109 0.0124,0.136426 0.01378,0.03032 0.04272,0.04823 0.03032,0.01791 0.08544,0.01791 0.04134,0 0.108864,-0.0096 z"
           id="path1220" />
      </g>
      <g
         aria-label="1."
         id="g1228"
         style="font-size:3.52778px;line-height:1.25;font-family:Arial;-inkscape-font-specification:Arial;fill:#0000ff;stroke-width:0.264583"
         transform="translate(0,-1.0583333)">
        <path
           d="m 53.412205,43.471992 h -0.310059 v -1.975763 q -0.111965,0.106798 -0.294555,0.213596 -0.180868,0.106798 -0.325562,0.160197 v -0.299723 q 0.260105,-0.122301 0.454753,-0.296279 0.194648,-0.173977 0.275608,-0.337619 h 0.199815 z"
           id="path1224" />
        <path
           d="M 54.380278,43.471992 V 43.11887 H 54.7334 v 0.353122 z"
           id="path1226" />
      </g>
      <g
         aria-label="2."
         id="g1234"
         style="font-size:3.52778px;line-height:1.25;font-family:Arial;-inkscape-font-specification:Arial;fill:#0000ff;stroke-width:0.264583"
         transform="translate(0.07374051)">
        <path
           d="m 34.24411,62.870334 v 0.298001 h -1.669149 q -0.0034,-0.111966 0.03617,-0.215319 0.06373,-0.170532 0.203261,-0.335897 0.141249,-0.165364 0.406521,-0.382406 0.41169,-0.337619 0.556384,-0.53399 0.144694,-0.198093 0.144694,-0.373793 0,-0.184312 -0.132636,-0.310059 -0.130914,-0.127468 -0.342788,-0.127468 -0.223931,0 -0.35829,0.134359 -0.134359,0.134358 -0.136081,0.37207 l -0.318672,-0.03273 q 0.03273,-0.356568 0.246325,-0.542603 0.213596,-0.187758 0.573608,-0.187758 0.363458,0 0.575332,0.201538 0.211873,0.201538 0.211873,0.499539 0,0.151585 -0.06201,0.298001 -0.06201,0.146417 -0.206706,0.308337 -0.142972,0.161919 -0.477146,0.444417 -0.279053,0.234267 -0.358291,0.318672 -0.07924,0.08268 -0.130913,0.167087 z"
           id="path1230" />
        <path
           d="m 34.75054,63.168335 v -0.353123 h 0.353122 v 0.353123 z"
           id="path1232" />
      </g>
      <g
         aria-label="3."
         id="g1240"
         style="font-size:3.52778px;line-height:1.25;font-family:Arial;-inkscape-font-specification:Arial;fill:#0000ff;stroke-width:0.264583"
         transform="translate(0,0.4109548)">
        <path
           d="m 39.589965,30.425697 0.310059,-0.04134 q 0.0534,0.26355 0.180867,0.380683 0.129192,0.115411 0.313504,0.115411 0.218764,0 0.368626,-0.151585 0.151584,-0.151584 0.151584,-0.375515 0,-0.213596 -0.139526,-0.3514 -0.139527,-0.139527 -0.354845,-0.139527 -0.08785,0 -0.218764,0.03445 l 0.03445,-0.272162 q 0.03101,0.0034 0.04995,0.0034 0.198093,0 0.356567,-0.103353 0.158475,-0.103353 0.158475,-0.318672 0,-0.170532 -0.115411,-0.282498 -0.115411,-0.111965 -0.298001,-0.111965 -0.180867,0 -0.301446,0.113688 -0.120578,0.113688 -0.155029,0.341065 L 39.620971,29.2113 q 0.05684,-0.311781 0.258382,-0.482314 0.201538,-0.172255 0.501262,-0.172255 0.206706,0 0.380683,0.08957 0.173978,0.08785 0.265273,0.241157 0.09302,0.153307 0.09302,0.325562 0,0.163642 -0.08785,0.298 -0.08785,0.134359 -0.260104,0.213597 0.223931,0.05168 0.347954,0.215318 0.124024,0.16192 0.124024,0.406522 0,0.330729 -0.241157,0.561551 -0.241157,0.229099 -0.609782,0.229099 -0.332452,0 -0.552938,-0.198094 -0.218764,-0.198093 -0.24977,-0.513319 z"
           id="path1236" />
        <path
           d="m 41.724203,31.092323 v -0.353122 h 0.353123 v 0.353122 z"
           id="path1238" />
      </g>
      <g
         aria-label="4."
         id="g1246"
         style="font-size:3.52778px;line-height:1.25;font-family:Arial;-inkscape-font-specification:Arial;fill:#0000ff;stroke-width:0.264583"
         transform="translate(-0.65674289,0.69806783)">
        <path
           d="M 49.832085,60.094215 V 59.489601 H 48.736543 V 59.20538 l 1.152386,-1.636421 h 0.253214 v 1.636421 h 0.341065 v 0.284221 h -0.341065 v 0.604614 z m 0,-0.888835 v -1.138605 l -0.79065,1.138605 z"
           id="path1242" />
        <path
           d="m 50.974134,60.094215 v -0.353122 h 0.353123 v 0.353122 z"
           id="path1244" />
      </g>
      <g
         aria-label="5."
         id="g1252"
         style="font-size:3.52778px;line-height:1.25;font-family:Arial;-inkscape-font-specification:Arial;fill:#0000ff;stroke-width:0.264583"
         transform="translate(0,0.22329066)">
        <path
           d="m 24.921567,58.919764 0.325562,-0.02756 q 0.03617,0.237712 0.167087,0.35829 0.132636,0.118856 0.318671,0.118856 0.223932,0 0.378961,-0.16881 0.15503,-0.16881 0.15503,-0.447862 0,-0.265273 -0.149862,-0.41858 -0.148139,-0.153307 -0.389296,-0.153307 -0.149862,0 -0.27044,0.0689 -0.120579,0.06718 -0.189481,0.1757 l -0.29111,-0.0379 0.244601,-1.297079 h 1.255739 v 0.296278 h -1.007692 l -0.136081,0.678685 q 0.227377,-0.158475 0.477146,-0.158475 0.33073,0 0.558106,0.229099 0.227376,0.229099 0.227376,0.589112 0,0.342787 -0.199815,0.592557 -0.24288,0.306613 -0.663182,0.306613 -0.344509,0 -0.563273,-0.192925 -0.217041,-0.192926 -0.248047,-0.511597 z"
           id="path1248" />
        <path
           d="M 27.057528,59.581223 V 59.2281 h 0.353122 v 0.353123 z"
           id="path1250" />
      </g>
      <path
         style="fill:none;fill-opacity:1;stroke:#0000ff;stroke-width:0.183655;stroke-linecap:butt;stroke-linejoin:miter;stroke-miterlimit:4;stroke-dasharray:none;stroke-opacity:1;marker-end:url(#Arrow2Mend-3)"
         d="m 26.063955,56.541604 c 0,0 0.0058,-1.332263 2.873777,-2.988087"
         id="path1254"
         sodipodi:nodetypes="cc" />
      <path
         style="fill:none;fill-opacity:1;stroke:#0000ff;stroke-width:0.183655;stroke-linecap:butt;stroke-linejoin:miter;stroke-miterlimit:4;stroke-dasharray:none;stroke-opacity:1;marker-end:url(#Arrow2Mend-3)"
         d="m 49.025594,57.317311 c 0,0 -0.0058,-1.332263 -2.873777,-2.988087"
         id="path1256"
         sodipodi:nodetypes="cc" />
      <path
         id="path1258"
         style="fill:#ff00ff;fill-opacity:0;stroke:#0000ff;stroke-width:0.190474;stroke-linecap:round;stroke-linejoin:round"
         d="m 109.94873,73.554763 h 15.64254 v 4.809525 h -15.64254 z"
         sodipodi:nodetypes="ccccc" />
      <g
         aria-label="6."
         id="g1264"
         style="font-size:3.52778px;line-height:1.25;font-family:Arial;-inkscape-font-specification:Arial;fill:#0000ff;stroke-width:0.264583">
        <path
           d="m 41.639051,75.298926 -0.308336,0.02412 q -0.04134,-0.18259 -0.117133,-0.265273 -0.125747,-0.132636 -0.310059,-0.132636 -0.148139,0 -0.260105,0.08268 -0.146417,0.106798 -0.230822,0.311782 -0.08441,0.204983 -0.08785,0.583944 0.111966,-0.170533 0.273886,-0.253215 0.161919,-0.08268 0.339342,-0.08268 0.310058,0 0.5271,0.229099 0.218763,0.227376 0.218763,0.589111 0,0.237712 -0.103353,0.442695 -0.10163,0.203261 -0.280775,0.311782 -0.179145,0.10852 -0.406522,0.10852 -0.387573,0 -0.632175,-0.28422 -0.244602,-0.285943 -0.244602,-0.940512 0,-0.732083 0.27044,-1.064535 0.235989,-0.289388 0.635621,-0.289388 0.298001,0 0.487481,0.167087 0.191203,0.167087 0.229099,0.461643 z m -1.266073,1.088651 q 0,0.160197 0.06718,0.306614 0.0689,0.146416 0.191203,0.223931 0.122301,0.07579 0.25666,0.07579 0.19637,0 0.337619,-0.158474 0.141249,-0.158475 0.141249,-0.430638 0,-0.261827 -0.139526,-0.411689 -0.139527,-0.151584 -0.3514,-0.151584 -0.210151,0 -0.356568,0.151584 -0.146416,0.149862 -0.146416,0.394464 z"
           id="path1260" />
        <path
           d="m 42.166151,77.205788 v -0.353123 h 0.353123 v 0.353123 z"
           id="path1262" />
      </g>
      <g
         aria-label="7."
         id="g1270"
         style="font-size:3.52778px;line-height:1.25;font-family:Arial;-inkscape-font-specification:Arial;fill:#0000ff;stroke-width:0.264583">
        <path
           d="m 106.26322,48.14347 v -0.298001 h 1.6347 v 0.241157 q -0.24116,0.25666 -0.47887,0.682129 -0.23599,0.42547 -0.36518,0.875055 -0.093,0.316949 -0.11886,0.694187 h -0.31867 q 0.005,-0.298001 0.11713,-0.720025 0.11197,-0.422024 0.3204,-0.813043 0.21015,-0.392741 0.44614,-0.661459 z"
           id="path1266" />
        <path
           d="m 108.37851,50.337997 v -0.353122 h 0.35312 v 0.353122 z"
           id="path1268" />
      </g>
      <g
         aria-label="8."
         id="g1276"
         style="font-size:3.52778px;line-height:1.25;font-family:Arial;-inkscape-font-specification:Arial;fill:#0000ff;stroke-width:0.264583">
        <path
           d="m 117.00433,75.836361 q -0.19292,-0.07062 -0.28594,-0.201538 -0.093,-0.130914 -0.093,-0.313504 0,-0.275608 0.19809,-0.463365 0.1981,-0.187758 0.5271,-0.187758 0.33073,0 0.53227,0.192925 0.20154,0.191203 0.20154,0.466811 0,0.1757 -0.093,0.306614 -0.0913,0.129191 -0.27905,0.199815 0.23254,0.07579 0.35312,0.244602 0.1223,0.16881 0.1223,0.403077 0,0.323839 -0.2291,0.544325 -0.2291,0.220486 -0.60289,0.220486 -0.37379,0 -0.60289,-0.220486 -0.2291,-0.222209 -0.2291,-0.552938 0,-0.246325 0.12402,-0.411689 0.12575,-0.167087 0.35657,-0.227377 z m -0.062,-0.525377 q 0,0.179145 0.11541,0.292833 0.11541,0.113688 0.29972,0.113688 0.17915,0 0.29284,-0.111965 0.11541,-0.113688 0.11541,-0.277331 0,-0.170532 -0.11886,-0.285943 -0.11713,-0.117133 -0.29283,-0.117133 -0.17742,0 -0.29456,0.113688 -0.11713,0.113688 -0.11713,0.272163 z m -0.0999,1.166165 q 0,0.132637 0.062,0.25666 0.0637,0.124024 0.18776,0.192926 0.12402,0.06718 0.267,0.06718 0.2222,0 0.3669,-0.142971 0.14469,-0.142972 0.14469,-0.363458 0,-0.223932 -0.14986,-0.370348 -0.14814,-0.146417 -0.37207,-0.146417 -0.21876,0 -0.36346,0.144694 -0.14297,0.144694 -0.14297,0.361735 z"
           id="path1272" />
        <path
           d="m 118.66315,77.205788 v -0.353123 h 0.35312 v 0.353123 z"
           id="path1274" />
      </g>
      <g
         id="g1294"
         transform="matrix(1.0076752,0,0,1.0074346,-0.59759816,-0.5126826)">
        <path
           style="opacity:1;fill:none;fill-opacity:1;stroke:#000000;stroke-width:0.263059;stroke-linecap:round;stroke-linejoin:round;stroke-miterlimit:4;stroke-dasharray:none;stroke-dashoffset:0;stroke-opacity:1"
           d="m 61.493377,81.814123 v 4.446612 c 0,2.749719 2.213883,4.963091 4.963602,4.963091 h 2.697976 m 0.297802,0 h 6.31059 3.102122 3.102124 6.544587 m 0.297804,0 h 2.463975 c 2.749718,0 4.963602,-2.213372 4.963602,-4.963091 v -4.446612 m 0,-0.297803 V 57.287833 m 0,-9.935666 V 30.484385 m 0,-0.297804 v -5.480452 c 0,-2.749719 -2.213884,-4.963602 -4.963602,-4.963602 h -2.463975 m -0.297804,0 h -4.683624 -2.481801 v 4.942057 h 6.471766 c 1.92623,0 4.527567,2.076046 4.527567,4.002275 v 6.466636 c 0,1.926224 -1.550752,3.476984 -3.476983,3.476984 H 85.454787 82.04 V 58.738812 H 68.861832 c -1.926231,0 -3.476983,-1.55076 -3.476983,-3.476984 V 28.686859 c 0,-1.926229 2.601337,-4.002275 4.527567,-4.002275 h 6.47074 v -4.942057 h -2.481544 -4.647389 m -0.297805,8.6e-5 -2.499439,-8.6e-5 c -2.749719,-9.3e-5 -4.963602,2.213883 -4.963602,4.963602 v 5.480452 m 0,0.297804 V 81.51632 M 85.892791,59.308012 V 43.135933 c 0,-1.154881 0.929873,-2.084754 2.084754,-2.084754 h 2.262244 c 1.154882,0 2.08463,0.929873 2.084755,2.084754 L 92.325,47.352167 96,47.352 m 0,5.284 -3.67546,1.67e-4 V 59.247 m 0,0.557317 v -0.257518 1.958021 c 0,1.154881 -0.929873,2.084753 -2.084755,2.084753 h -2.262244 c -1.154881,0 -2.084754,-0.929872 -2.084754,-2.084753 v -1.899041 m -7.121712,5.284143 c 6.030733,8.5e-5 10.919507,4.88909 10.919307,10.919823 -8.3e-5,6.030534 -4.888773,10.919223 -10.919307,10.919308 -6.030734,1.99e-4 -10.919736,-4.888574 -10.91982,-10.919308 -2e-4,-6.030933 4.888887,-10.920022 10.91982,-10.919823 z m 13.54934,-7.988016 c 0,1.154881 -0.929873,2.084753 -2.084754,2.084753 h -2.262245 c -1.154881,0 -2.084753,-0.929872 -2.084753,-2.084753 M 96,57.287833 h -3.491558"
           id="path1278"
           inkscape:connector-curvature="0"
           sodipodi:nodetypes="csscccccccssccccccsscccccsssscccsssscccccssccccsssscccccccsssscccccccssccc" />
        <g
           transform="translate(-2.1171964,0.20395503)"
           id="g1284">
          <circle
             style="opacity:1;fill:none;fill-opacity:1;stroke:#000000;stroke-width:0.265;stroke-linecap:round;stroke-linejoin:round;stroke-miterlimit:4;stroke-dasharray:none;stroke-dashoffset:0;stroke-opacity:1"
             id="circle1280"
             cx="94.457085"
             cy="23.228344"
             r="1.4" />
          <circle
             r="1.4"
             cy="23.222561"
             cx="67.514664"
             id="circle1282"
             style="opacity:1;fill:none;fill-opacity:1;stroke:#000000;stroke-width:0.265;stroke-linecap:round;stroke-linejoin:round;stroke-miterlimit:4;stroke-dasharray:none;stroke-dashoffset:0;stroke-opacity:1" />
        </g>
        <g
           id="g1290"
           transform="translate(-2.1171964,64.269394)">
          <circle
             r="1.4"
             cy="22.74659"
             cx="94.456825"
             id="circle1286"
             style="opacity:1;fill:none;fill-opacity:1;stroke:#000000;stroke-width:0.265;stroke-linecap:round;stroke-linejoin:round;stroke-miterlimit:4;stroke-dasharray:none;stroke-dashoffset:0;stroke-opacity:1" />
          <circle
             style="opacity:1;fill:none;fill-opacity:1;stroke:#000000;stroke-width:0.265;stroke-linecap:round;stroke-linejoin:round;stroke-miterlimit:4;stroke-dasharray:none;stroke-dashoffset:0;stroke-opacity:1"
             id="circle1288"
             cx="67.519402"
             cy="22.753035"
             r="1.4" />
        </g>
        <path
           style="fill:none;stroke:#000000;stroke-width:0.264583px;stroke-linecap:butt;stroke-linejoin:miter;stroke-opacity:1"
           d="m 96.4,47.352 h 2.19983 l -0.529167,0.6605 0.529167,0.6605 -0.529167,0.6605 0.529167,0.6605 -0.529167,0.6605 0.529167,0.6605 -0.529167,0.6605 0.529167,0.6605 H 96.2"
           id="path1292"
           sodipodi:nodetypes="ccccccccccc" />
      </g>
      <g
         aria-label="9."
         id="g1300"
         style="font-size:3.52778px;line-height:1.25;font-family:Arial;-inkscape-font-specification:Arial;fill:#0000ff;stroke-width:0.264583">
        <path
           d="m 88.297723,50.552092 0.298001,-0.02756 q 0.0379,0.210151 0.144694,0.304891 0.106798,0.09474 0.273885,0.09474 0.142972,0 0.24977,-0.06546 0.10852,-0.06546 0.177422,-0.173978 0.0689,-0.110243 0.115411,-0.296278 0.04651,-0.186036 0.04651,-0.378961 0,-0.02067 -0.0017,-0.06201 -0.09302,0.148139 -0.254937,0.241157 -0.160197,0.0913 -0.347955,0.0913 -0.313504,0 -0.530545,-0.227376 -0.217041,-0.227377 -0.217041,-0.599447 0,-0.384129 0.225654,-0.618395 0.227376,-0.234267 0.568441,-0.234267 0.246325,0 0.449585,0.132636 0.204984,0.132637 0.310059,0.378961 0.106798,0.244602 0.106798,0.70969 0,0.484036 -0.105075,0.771702 -0.105076,0.285943 -0.313504,0.435805 -0.206706,0.149862 -0.485759,0.149862 -0.296278,0 -0.484036,-0.163643 -0.187758,-0.165364 -0.225654,-0.463365 z m 1.269518,-1.114489 q 0,-0.266995 -0.142971,-0.423747 -0.141249,-0.156752 -0.341065,-0.156752 -0.206706,0 -0.360013,0.16881 -0.153306,0.168809 -0.153306,0.437527 0,0.241157 0.144694,0.392741 0.146416,0.149862 0.360012,0.149862 0.215319,0 0.353123,-0.149862 0.139526,-0.151584 0.139526,-0.418579 z"
           id="path1296" />
        <path
           d="m 90.387175,51.136036 v -0.353123 h 0.353122 v 0.353123 z"
           id="path1298" />
      </g>
    </g>
  </g>
</svg>
