<?xml version="1.0" encoding="UTF-8" standalone="no"?>
<!-- Created with Inkscape (http://www.inkscape.org/) -->

<svg
   width="400mm"
   height="300mm"
   viewBox="0 0 400 300"
   version="1.1"
   id="svg8"
   inkscape:version="1.1.2 (0a00cf5339, 2022-02-04, custom)"
   sodipodi:docname="flashlight_w_bridges-1x.svg"
   xmlns:inkscape="http://www.inkscape.org/namespaces/inkscape"
   xmlns:sodipodi="http://sodipodi.sourceforge.net/DTD/sodipodi-0.dtd"
   xmlns="http://www.w3.org/2000/svg"
   xmlns:svg="http://www.w3.org/2000/svg"
   xmlns:rdf="http://www.w3.org/1999/02/22-rdf-syntax-ns#"
   xmlns:cc="http://creativecommons.org/ns#"
   xmlns:dc="http://purl.org/dc/elements/1.1/">
  <defs
     id="defs2">
    <marker
       style="overflow:visible"
       id="Arrow2Send"
       refX="0"
       refY="0"
       orient="auto"
       inkscape:stockid="Arrow2Send"
       inkscape:isstock="true">
      <path
         transform="matrix(-0.3,0,0,-0.3,0.69,0)"
         d="M 8.7185878,4.0337352 -2.2072895,0.01601326 8.7185884,-4.0017078 c -1.7454984,2.3720609 -1.7354408,5.6174519 -6e-7,8.035443 z"
         style="fill:context-stroke;fill-rule:evenodd;stroke:context-stroke;stroke-width:0.625;stroke-linejoin:round"
         id="path64967" />
    </marker>
    <marker
       style="overflow:visible"
       id="Arrow2Mend"
       refX="0"
       refY="0"
       orient="auto"
       inkscape:stockid="Arrow2Mend"
       inkscape:isstock="true">
      <path
         transform="scale(-0.6)"
         d="M 8.7185878,4.0337352 -2.2072895,0.01601326 8.7185884,-4.0017078 c -1.7454984,2.3720609 -1.7354408,5.6174519 -6e-7,8.035443 z"
         style="fill:context-stroke;fill-rule:evenodd;stroke:context-stroke;stroke-width:0.625;stroke-linejoin:round"
         id="path64961" />
    </marker>
    <marker
       style="overflow:visible"
       id="Arrow1Send"
       refX="0"
       refY="0"
       orient="auto"
       inkscape:stockid="Arrow1Send"
       inkscape:isstock="true">
      <path
         transform="matrix(-0.2,0,0,-0.2,-1.2,0)"
         style="fill:context-stroke;fill-rule:evenodd;stroke:context-stroke;stroke-width:1pt"
         d="M 0,0 5,-5 -12.5,0 5,5 Z"
         id="path64949" />
    </marker>
    <marker
       style="overflow:visible"
       id="Arrow1Mend"
       refX="0"
       refY="0"
       orient="auto"
       inkscape:stockid="Arrow1Mend"
       inkscape:isstock="true">
      <path
         transform="matrix(-0.4,0,0,-0.4,-4,0)"
         style="fill:context-stroke;fill-rule:evenodd;stroke:context-stroke;stroke-width:1pt"
         d="M 0,0 5,-5 -12.5,0 5,5 Z"
         id="path64943" />
    </marker>
  </defs>
  <sodipodi:namedview
     id="base"
     pagecolor="#ffffff"
     bordercolor="#666666"
     borderopacity="1.0"
     inkscape:pageopacity="0.0"
     inkscape:pageshadow="2"
     inkscape:zoom="1.6628503"
     inkscape:cx="1088.4925"
     inkscape:cy="154.85459"
     inkscape:document-units="mm"
     inkscape:current-layer="layer1"
     showgrid="false"
     inkscape:window-width="1920"
     inkscape:window-height="998"
     inkscape:window-x="0"
     inkscape:window-y="0"
     inkscape:window-maximized="1"
     inkscape:pagecheckerboard="0"
     showguides="false" />
  <metadata
     id="metadata5">
    <rdf:RDF>
      <cc:Work
         rdf:about="">
        <dc:format>image/svg+xml</dc:format>
        <dc:type
           rdf:resource="http://purl.org/dc/dcmitype/StillImage" />
      </cc:Work>
    </rdf:RDF>
  </metadata>
  <g
     inkscape:label="Layer 1"
     inkscape:groupmode="layer"
     id="layer1">
    <path
       style="color:#000000;fill:none;stroke:#0000ff;stroke-width:0.5;stroke-miterlimit:4;stroke-dasharray:none;stroke-opacity:1"
       d="m 338.38157,26.932819 v 54.722656 h 15.73099 v -5 H 343.38157 V 26.932819 Z"
       id="path7482"
       sodipodi:nodetypes="ccccccc" />
    <path
       style="color:#000000;fill:none;stroke:#0000ff;stroke-width:0.5;stroke-miterlimit:4;stroke-dasharray:none;stroke-opacity:1"
       d="m 271.34269,17.055866 v 5 h 7.83789 v 18.322265 h 5 V 17.055866 Z"
       id="path7484" />
    <path
       style="color:#000000;fill:none;stroke:#0000ff;stroke-width:0.5;stroke-miterlimit:4;stroke-dasharray:none;stroke-opacity:1"
       d="m 251.20011,13.786334 v 68.244141 h 25.20221 v -5 H 256.20011 V 18.786334 h 7.83789 v -5 z"
       id="path7486"
       sodipodi:nodetypes="ccccccccc" />
    <rect
       style="fill:none;fill-opacity:1;stroke:#ff0000;stroke-width:0.001;stroke-linecap:round;stroke-linejoin:round;stroke-miterlimit:4;stroke-dasharray:none;stroke-dashoffset:0;stroke-opacity:1"
       id="rect7488"
       width="120"
       height="97.79126"
       x="246.78603"
       y="1.5224693" />
    <path
       id="path7490"
       style="fill:none;stroke:#ff0000;stroke-width:0.001;stroke-linecap:round;stroke-linejoin:round;stroke-miterlimit:4;stroke-dasharray:none;stroke-opacity:1"
       d="M 250.24139,11.155475 V 9.6346413 c 0,-2.7700003 2.23016,-5.0000007 5.00016,-5.0000007 m 0.30008,0 h 11.99984 12.40008 m 0.3,0 c 2.77,0 4.99984,2.2300004 4.99984,5.0000007 v 1.5208337 m 0,0.3 v 74.223 m 0,0.3 v 3.65617 c 0,2.77 -2.23,5 -5,5 h -3.32484 m -0.3,0 h -5.75016 -12.33084 m -0.3,0 h -2.99369 c -2.77,0 -5.00047,-2.23 -5.00047,-5 v -3.85617 m 0,-0.3 V 31.150268 11.455475"
       sodipodi:nodetypes="cscccccsccccsscccccsscccc" />
    <path
       id="path7492"
       style="fill:none;stroke:#ff0000;stroke-width:0.001;stroke-linecap:round;stroke-linejoin:round;stroke-miterlimit:4;stroke-dasharray:none;stroke-opacity:1"
       d="M 328.33098,11.052904 V 9.5320703 c 0,-2.7700003 2.23016,-5.0000007 5.00016,-5.0000007 m 0.30041,0 h 12.19943 12.20057 m 0.29959,0 c 2.77,0 4.99984,2.2300004 4.99984,5.0000007 v 1.5208337 m 0,0.299571 v 74.02343 m 0,0.29957 v 3.8566 c 0,2.77 -2.23,5 -5,5 h -3.32443 m -0.30041,0 h -5.95017 -12.13084 m -0.29999,0 h -2.99369 c -2.77,0 -5.00047,-2.23 -5.00047,-5 v -3.8566 m 0,-0.29957 V 31.047694 11.352475"
       sodipodi:nodetypes="cscccccsccccsscccccsscccc" />
    <path
       style="fill:none;fill-opacity:1;stroke:#ff0000;stroke-width:0.001;stroke-linecap:round;stroke-linejoin:round;stroke-miterlimit:4;stroke-dasharray:none;stroke-dashoffset:0;stroke-opacity:1"
       d="m 289.95546,85.155474 v 4.479409 c 0,2.77 2.23021,4.999697 5.00021,4.999697 h 2.71788 m 0.29999,0 h 6.35714 3.125 3.12501 6.59285 m 0.30001,0 h 2.48214 c 2.77,0 5.00022,-2.229697 5.00022,-4.999697 v -4.479409 m 0,-0.3 V 60.069051 15.455476 m 0,-0.300001 V 9.6346003 c 0,-2.7700003 -2.23022,-5.0002115 -5.00022,-5.0002115 h -2.48214 m -0.30001,0 h -4.71816 -2.50011 v 4.9785075 h 6.5195 c 1.94044,0 3.50263,1.5621907 3.50263,3.5026277 v 6.514333 c 0,1.94043 -1.56219,3.502628 -3.50263,3.502628 h -18.03818 c -1.94043,0 -3.50262,-1.562198 -3.50262,-3.502628 v -6.514333 c 0,-1.940437 1.56219,-3.5026277 3.50262,-3.5026277 h 6.51847 V 4.6343888 h -2.49985 -4.68166 m -0.3,8.58e-5 -2.51788,-8.58e-5 c -2.77,-9.44e-5 -5.00021,2.2302112 -5.00021,5.0002115 v 5.5208747 m 0,0.300001 v 69.399998 m 5.00021,-49.920001 V 30.32481 c 0,-1.163399 0.93673,-2.10013 2.10013,-2.10013 h 20.79976 c 1.1634,0 2.10013,0.936731 2.10013,2.10013 v 4.810665 m 0,0.3 v 2.40593 2.505533 c 0,1.163399 -0.93673,2.10013 -2.10013,2.10013 H 297.0558 c -1.1634,0 -2.10013,-0.936731 -2.10013,-2.10013 v -5.111464 m 12.40493,32.871007 c 6.07521,8.5e-5 11.00004,4.92515 10.99984,11.000365 -8e-5,6.075013 -4.92483,10.99976 -10.99984,10.999845 -6.07522,2.01e-4 -11.00028,-4.924631 -11.00037,-10.999845 -2e-4,-6.075416 4.92495,-11.000566 11.00037,-11.000365 z"
       id="path7494"
       inkscape:connector-curvature="0"
       sodipodi:nodetypes="csscccccccsscccccsscccccsssssssscccccssccccsssscccsssscccccc" />
    <circle
       r="11"
       cy="79.106667"
       cx="267.74139"
       id="circle7496"
       style="fill:none;fill-opacity:1;stroke:#0000fa;stroke-width:0.00026458;stroke-linecap:round;stroke-linejoin:round;stroke-miterlimit:4;stroke-dasharray:none;stroke-dashoffset:0;stroke-opacity:1" />
    <path
       style="fill:#00ff00;fill-opacity:1;stroke:none;stroke-width:0.001;stroke-linecap:round;stroke-linejoin:round;stroke-miterlimit:4;stroke-dasharray:none;stroke-dashoffset:0;stroke-opacity:1"
       d="m 266.33519,4.6343888 c -0.60596,0 -1.09398,0.4880221 -1.09398,1.0939902 v 5.812565 c 0,0.02359 0.005,0.04552 0.007,0.06873 h -0.85628 v 0.999938 h 1.71255 c 0.0745,0.0159 0.15162,0.02479 0.231,0.02479 h 2.81223 c 0.0794,0 0.15651,-0.0089 0.23099,-0.02479 h 1.71308 v -0.999938 h -0.8568 c 0.002,-0.02321 0.007,-0.04514 0.007,-0.06873 V 5.728379 c 0,-0.6059681 -0.48802,-1.0939902 -1.09399,-1.0939902 z"
       id="path7498"
       inkscape:connector-curvature="0" />
    <path
       style="fill:#0000ff;fill-opacity:1;stroke:#0000ff;stroke-width:0.264583px;stroke-linecap:butt;stroke-linejoin:miter;stroke-opacity:1"
       d="m 266.1042,12.609612 -6.38278,4.753238"
       id="path7500"
       inkscape:connector-curvature="0"
       sodipodi:nodetypes="cc" />
    <path
       sodipodi:nodetypes="cc"
       inkscape:connector-curvature="0"
       id="path7504"
       d="m 269.37842,12.609612 5.31371,7.960473"
       style="fill:#0000ff;fill-opacity:1;stroke:#0000ff;stroke-width:0.264583px;stroke-linecap:butt;stroke-linejoin:miter;stroke-opacity:1" />
    <path
       id="path7508"
       style="fill:none;stroke:#ff0000;stroke-width:0.001;stroke-linecap:round;stroke-linejoin:round;stroke-miterlimit:4;stroke-dasharray:none;stroke-opacity:1"
       d="m 311.70849,28.224582 c 1.1634,0 2.1,0.9366 2.1,2.1 v 2.505653 2.30524 m 0,0.3 v 4.911718 c 0,1.1634 -0.9366,2.1 -2.1,2.1"
       sodipodi:nodetypes="cscccsc" />
    <path
       style="fill:none;fill-opacity:1;stroke:#0000ff;stroke-width:0.001;stroke-linecap:round;stroke-linejoin:round;stroke-miterlimit:4;stroke-dasharray:none;stroke-dashoffset:0;stroke-opacity:1"
       d="m 294.95569,33.064095 c 0,-1.1634 0.9366,-2.1 2.09999,-2.1 h 3.82839 c 1.1634,0 2.1,0.9366 2.1,2.1 v 4.543584 c 0,1.1634 -0.9366,2.1 -2.1,2.1 h -3.82839 c -1.16339,0 -2.09999,-0.9366 -2.09999,-2.1"
       id="path7510"
       inkscape:connector-curvature="0"
       sodipodi:nodetypes="cssssssc" />
    <g
       aria-label="x"
       style="font-style:normal;font-weight:normal;font-size:10.5833px;line-height:1.25;font-family:sans-serif;letter-spacing:0px;word-spacing:0px;fill:#0000ff;fill-opacity:1;stroke:#0000ff;stroke-width:0.264583;stroke-opacity:1"
       id="g7514"
       transform="translate(226.74082,-14.677884)">
      <path
         d="m 91.070535,49.049144 -0.697631,0.938788 0.733805,0.990465 h -0.373793 l -0.561551,-0.757921 -0.56155,0.757921 h -0.373793 l 0.749308,-1.009413 -0.685574,-0.91984 h 0.373793 l 0.511597,0.687296 0.511597,-0.687296 z"
         style="font-size:3.52778px;fill:#0000ff;fill-opacity:1;stroke:#0000ff;stroke-width:0.264583;stroke-opacity:1"
         id="path7512"
         inkscape:connector-curvature="0" />
    </g>
    <g
       aria-label="-"
       style="font-style:normal;font-weight:normal;font-size:10.5833px;line-height:1.25;font-family:sans-serif;letter-spacing:0px;word-spacing:0px;fill:#0000ff;fill-opacity:1;stroke:#0000ff;stroke-width:0.264583;stroke-opacity:1"
       id="g7518"
       transform="translate(226.47355,-14.844525)">
      <path
         d="m 39.875163,93.527448 h 2.785359 v 0.847494 h -2.785359 z"
         style="fill:#0000ff;fill-opacity:1;stroke:#0000ff;stroke-width:0.264583;stroke-opacity:1"
         id="path7516"
         inkscape:connector-curvature="0" />
    </g>
    <g
       transform="translate(226.47302,-14.640571)"
       id="g7524"
       style="stroke:#ff0000;stroke-width:0.001;stroke-miterlimit:4;stroke-dasharray:none;stroke-opacity:1">
      <circle
         style="opacity:1;fill:none;fill-opacity:1;stroke:#ff0000;stroke-width:0.001;stroke-linecap:round;stroke-linejoin:round;stroke-miterlimit:4;stroke-dasharray:none;stroke-dashoffset:0;stroke-opacity:1"
         id="circle7520"
         cx="94.546593"
         cy="22.981913"
         r="1.4" />
      <circle
         r="1.4"
         cy="22.981913"
         cx="67.418739"
         id="circle7522"
         style="opacity:1;fill:none;fill-opacity:1;stroke:#ff0000;stroke-width:0.001;stroke-linecap:round;stroke-linejoin:round;stroke-miterlimit:4;stroke-dasharray:none;stroke-dashoffset:0;stroke-opacity:1" />
    </g>
    <g
       id="g7530"
       transform="translate(226.47302,67.945713)"
       style="stroke:#ff0000;stroke-width:0.001;stroke-miterlimit:4;stroke-dasharray:none;stroke-opacity:1">
      <circle
         r="1.4"
         cy="22.981913"
         cx="94.546593"
         id="circle7526"
         style="opacity:1;fill:none;fill-opacity:1;stroke:#ff0000;stroke-width:0.001;stroke-linecap:round;stroke-linejoin:round;stroke-miterlimit:4;stroke-dasharray:none;stroke-dashoffset:0;stroke-opacity:1" />
      <circle
         style="opacity:1;fill:none;fill-opacity:1;stroke:#ff0000;stroke-width:0.001;stroke-linecap:round;stroke-linejoin:round;stroke-miterlimit:4;stroke-dasharray:none;stroke-dashoffset:0;stroke-opacity:1"
         id="circle7528"
         cx="67.418739"
         cy="22.981913"
         r="1.4" />
    </g>
    <path
       style="fill:none;fill-opacity:1;stroke:#ff0000;stroke-width:0.001;stroke-linecap:round;stroke-linejoin:round;stroke-miterlimit:4;stroke-dasharray:none;stroke-dashoffset:0;stroke-opacity:1"
       d="m 344.02155,35.488475 3.8e-4,2.119095 c 2.1e-4,1.163399 0.93674,2.10013 2.10013,2.10013 h 10.10895 c 1.1634,0 2.0999,-0.936731 2.10013,-2.10013 l 4.1e-4,-2.119095 m -4.1e-4,-0.3 v -2.124296 c 0,-1.163402 -0.93673,-2.10013 -2.10013,-2.10013 h -10.10895 c -1.16339,0 -2.10013,0.936728 -2.10013,2.10013 v 2.124296"
       id="path7532"
       sodipodi:nodetypes="cssssccssssc" />
    <circle
       r="11"
       cy="79.106667"
       cx="-345.83105"
       id="circle7534"
       style="fill:none;fill-opacity:1;stroke:#0000fa;stroke-width:0.00026458;stroke-linecap:round;stroke-linejoin:round;stroke-miterlimit:4;stroke-dasharray:none;stroke-dashoffset:0;stroke-opacity:1"
       transform="scale(-1,1)" />
    <path
       style="fill:none;fill-opacity:1;stroke:#ff0000;stroke-width:0.001;stroke-linecap:round;stroke-linejoin:round;stroke-miterlimit:4;stroke-dasharray:none;stroke-dashoffset:0;stroke-opacity:1"
       d="m 352.40268,30.964095 c -1.1634,0 -2.1,0.93698 -2.1,2.10038 m 0,0.3 v 1.971412 1.971588 m 0,0.3 c 0,1.1634 0.9366,2.100204 2.1,2.100204"
       id="path7536"
       inkscape:connector-curvature="0"
       sodipodi:nodetypes="ccccccc" />
    <path
       inkscape:connector-curvature="0"
       id="path7538"
       d="m 347.23725,4.6343886 c 0.60596,0 1.09398,0.488022 1.09398,1.0939904 v 5.812565 c 0,0.02359 -0.005,0.04552 -0.007,0.06873 h 0.85628 v 0.999938 h -1.71256 c -0.0745,0.0159 -0.15161,0.02479 -0.23099,0.02479 h -2.81223 c -0.0794,0 -0.15651,-0.0089 -0.23099,-0.02479 h -1.71308 v -0.999938 h 0.8568 c -0.002,-0.02321 -0.007,-0.04514 -0.007,-0.06873 V 5.728379 c 0,-0.6059684 0.48802,-1.0939904 1.09399,-1.0939904 z"
       style="fill:#00ff00;fill-opacity:1;stroke:none;stroke-width:0.001;stroke-linecap:round;stroke-linejoin:round;stroke-miterlimit:4;stroke-dasharray:none;stroke-dashoffset:0;stroke-opacity:1" />
    <g
       transform="matrix(-1,0,0,1,437.12488,-14.677884)"
       id="g7542"
       style="font-style:normal;font-weight:normal;font-size:10.5833px;line-height:1.25;font-family:sans-serif;letter-spacing:0px;word-spacing:0px;fill:#0000ff;fill-opacity:1;stroke:#0000ff;stroke-width:0.264583;stroke-opacity:1"
       aria-label="x">
      <path
         inkscape:connector-curvature="0"
         id="path7540"
         style="font-size:3.52778px;fill:#0000ff;fill-opacity:1;stroke:#0000ff;stroke-width:0.264583;stroke-opacity:1"
         d="m 91.070535,49.049144 -0.697631,0.938788 0.733805,0.990465 h -0.373793 l -0.561551,-0.757921 -0.56155,0.757921 h -0.373793 l 0.749308,-1.009413 -0.685574,-0.91984 h 0.373793 l 0.511597,0.687296 0.511597,-0.687296 z" />
    </g>
    <g
       aria-label="+"
       style="font-style:normal;font-weight:normal;font-size:10.5833px;line-height:1.25;font-family:sans-serif;letter-spacing:0px;word-spacing:0px;fill:#0000ff;fill-opacity:1;stroke:#0000ff;stroke-width:0.264583;stroke-opacity:1"
       id="g7546"
       transform="matrix(-1,0,0,1,465.18818,-14.844525)">
      <path
         d="m 119.7912,90.633568 v 2.878377 h 2.87838 v 0.8785 h -2.87838 v 2.878377 h -0.86817 v -2.878377 h -2.87837 v -0.8785 h 2.87837 v -2.878377 z"
         style="fill:#0000ff;fill-opacity:1;stroke:#0000ff;stroke-width:0.264583;stroke-opacity:1"
         id="path7544"
         inkscape:connector-curvature="0" />
    </g>
    <g
       id="g7560"
       transform="matrix(-1,0,0,1,426.813,-14.74315)"
       style="stroke:#ff0000;stroke-width:0.001;stroke-miterlimit:4;stroke-dasharray:none;stroke-opacity:1">
      <g
         id="g7552"
         transform="translate(-5.2966087e-4)"
         style="stroke:#ff0000;stroke-width:0.001;stroke-miterlimit:4;stroke-dasharray:none;stroke-opacity:1">
        <circle
           r="1.4"
           cy="22.981913"
           cx="94.546593"
           id="circle7548"
           style="opacity:1;fill:none;fill-opacity:1;stroke:#ff0000;stroke-width:0.001;stroke-linecap:round;stroke-linejoin:round;stroke-miterlimit:4;stroke-dasharray:none;stroke-dashoffset:0;stroke-opacity:1" />
        <circle
           style="opacity:1;fill:none;fill-opacity:1;stroke:#ff0000;stroke-width:0.001;stroke-linecap:round;stroke-linejoin:round;stroke-miterlimit:4;stroke-dasharray:none;stroke-dashoffset:0;stroke-opacity:1"
           id="circle7550"
           cx="67.418739"
           cy="22.981913"
           r="1.4" />
      </g>
      <g
         transform="translate(-5.2966087e-4,82.586284)"
         id="g7558"
         style="stroke:#ff0000;stroke-width:0.001;stroke-miterlimit:4;stroke-dasharray:none;stroke-opacity:1">
        <circle
           style="opacity:1;fill:none;fill-opacity:1;stroke:#ff0000;stroke-width:0.001;stroke-linecap:round;stroke-linejoin:round;stroke-miterlimit:4;stroke-dasharray:none;stroke-dashoffset:0;stroke-opacity:1"
           id="circle7554"
           cx="94.546593"
           cy="22.981913"
           r="1.4" />
        <circle
           r="1.4"
           cy="22.981913"
           cx="67.418739"
           id="circle7556"
           style="opacity:1;fill:none;fill-opacity:1;stroke:#ff0000;stroke-width:0.001;stroke-linecap:round;stroke-linejoin:round;stroke-miterlimit:4;stroke-dasharray:none;stroke-dashoffset:0;stroke-opacity:1" />
      </g>
    </g>
    <g
       transform="translate(186.75925,-14.640414)"
       id="g7574"
       style="stroke:#ff0000;stroke-width:0.001;stroke-miterlimit:4;stroke-dasharray:none;stroke-opacity:1">
      <g
         id="g7566"
         transform="translate(-5.2966087e-4)"
         style="stroke:#ff0000;stroke-width:0.001;stroke-miterlimit:4;stroke-dasharray:none;stroke-opacity:1">
        <circle
           r="1.4"
           cy="22.981913"
           cx="94.546593"
           id="circle7562"
           style="opacity:1;fill:none;fill-opacity:1;stroke:#ff0000;stroke-width:0.001;stroke-linecap:round;stroke-linejoin:round;stroke-miterlimit:4;stroke-dasharray:none;stroke-dashoffset:0;stroke-opacity:1" />
        <circle
           style="opacity:1;fill:none;fill-opacity:1;stroke:#ff0000;stroke-width:0.001;stroke-linecap:round;stroke-linejoin:round;stroke-miterlimit:4;stroke-dasharray:none;stroke-dashoffset:0;stroke-opacity:1"
           id="circle7564"
           cx="67.418739"
           cy="22.981913"
           r="1.4" />
      </g>
      <g
         transform="translate(-5.2966087e-4,82.586284)"
         id="g7572"
         style="stroke:#ff0000;stroke-width:0.001;stroke-miterlimit:4;stroke-dasharray:none;stroke-opacity:1">
        <circle
           style="opacity:1;fill:none;fill-opacity:1;stroke:#ff0000;stroke-width:0.001;stroke-linecap:round;stroke-linejoin:round;stroke-miterlimit:4;stroke-dasharray:none;stroke-dashoffset:0;stroke-opacity:1"
           id="circle7568"
           cx="94.546593"
           cy="22.981913"
           r="1.4" />
        <circle
           r="1.4"
           cy="22.981913"
           cx="67.418739"
           id="circle7570"
           style="opacity:1;fill:none;fill-opacity:1;stroke:#ff0000;stroke-width:0.001;stroke-linecap:round;stroke-linejoin:round;stroke-miterlimit:4;stroke-dasharray:none;stroke-dashoffset:0;stroke-opacity:1" />
      </g>
    </g>
    <g
       aria-label="long leg = Anode = "
       transform="rotate(90,120.65904,105.81451)"
       id="g7604"
       style="font-size:3.52778px;line-height:1.25;font-family:Arial;-inkscape-font-specification:Arial;fill:#0000ff;fill-opacity:1;stroke:none;stroke-width:0.264583;stroke-opacity:1">
      <path
         d="m 39.258159,-48.045109 v -2.525256 h 0.310059 v 2.525256 z"
         id="path7576"
         style="fill:#0000ff;fill-opacity:1;stroke:none;stroke-opacity:1" />
      <path
         d="m 39.933398,-48.959782 q 0,-0.508152 0.282498,-0.752754 0.235989,-0.203261 0.575331,-0.203261 0.377239,0 0.616673,0.248047 0.239434,0.246325 0.239434,0.68213 0,0.353122 -0.106798,0.556383 -0.105075,0.201538 -0.308336,0.313504 -0.201538,0.111965 -0.440973,0.111965 -0.384128,0 -0.62184,-0.246324 -0.235989,-0.246325 -0.235989,-0.70969 z m 0.318672,0 q 0,0.3514 0.153306,0.5271 0.153307,0.173977 0.385851,0.173977 0.230822,0 0.384129,-0.1757 0.153307,-0.1757 0.153307,-0.535713 0,-0.339342 -0.15503,-0.513319 -0.153307,-0.1757 -0.382406,-0.1757 -0.232544,0 -0.385851,0.173977 -0.153306,0.173978 -0.153306,0.525378 z"
         id="path7578"
         style="fill:#0000ff;fill-opacity:1;stroke:none;stroke-opacity:1" />
      <path
         d="m 42.010792,-48.045109 v -1.829347 h 0.279053 v 0.260105 q 0.201538,-0.301446 0.582221,-0.301446 0.165365,0 0.303169,0.06029 0.139526,0.05857 0.208428,0.15503 0.0689,0.09646 0.09646,0.229099 0.01723,0.08613 0.01723,0.301446 v 1.124824 h -0.310059 v -1.112766 q 0,-0.189481 -0.03617,-0.282498 -0.03617,-0.09474 -0.129191,-0.149862 -0.0913,-0.05684 -0.215319,-0.05684 -0.198093,0 -0.342787,0.125746 -0.142971,0.125746 -0.142971,0.477146 v 0.999078 z"
         id="path7580"
         style="fill:#0000ff;fill-opacity:1;stroke:none;stroke-opacity:1" />
      <path
         d="m 43.915931,-47.893524 0.301446,0.04479 q 0.01895,0.139526 0.105076,0.203261 0.11541,0.08613 0.315226,0.08613 0.215319,0 0.332452,-0.08613 0.117133,-0.08613 0.158474,-0.241157 0.02412,-0.09474 0.02239,-0.397909 -0.203261,0.239434 -0.50643,0.239434 -0.377238,0 -0.583944,-0.272163 -0.206706,-0.272162 -0.206706,-0.652846 0,-0.261827 0.09474,-0.482313 0.09474,-0.222209 0.273886,-0.342787 0.180867,-0.120579 0.423747,-0.120579 0.323839,0 0.53399,0.261828 v -0.220487 h 0.285943 v 1.5813 q 0,0.427192 -0.08785,0.604615 -0.08613,0.179145 -0.275608,0.282498 -0.187758,0.103353 -0.463365,0.103353 -0.327285,0 -0.528823,-0.148139 -0.201538,-0.146417 -0.194648,-0.442695 z m 0.25666,-1.098987 q 0,0.360013 0.142971,0.525378 0.142972,0.165364 0.358291,0.165364 0.213596,0 0.35829,-0.163642 0.144694,-0.165364 0.144694,-0.516764 0,-0.335897 -0.149862,-0.50643 -0.148139,-0.170532 -0.35829,-0.170532 -0.206706,0 -0.3514,0.16881 -0.144694,0.167087 -0.144694,0.497816 z"
         id="path7582"
         style="fill:#0000ff;fill-opacity:1;stroke:none;stroke-opacity:1" />
      <path
         d="m 46.907998,-48.045109 v -2.525256 h 0.310059 v 2.525256 z"
         id="path7584"
         style="fill:#0000ff;fill-opacity:1;stroke:none;stroke-opacity:1" />
      <path
         d="m 48.950942,-48.634221 0.320394,0.03962 q -0.07579,0.280776 -0.280776,0.435805 -0.204983,0.155029 -0.523655,0.155029 -0.401353,0 -0.637343,-0.246324 -0.234266,-0.248047 -0.234266,-0.694187 0,-0.461643 0.237711,-0.716581 0.237712,-0.254937 0.616673,-0.254937 0.366903,0 0.599447,0.24977 0.232544,0.249769 0.232544,0.7028 0,0.02756 -0.0017,0.08268 H 47.91569 q 0.01723,0.301446 0.170532,0.461643 0.153307,0.160197 0.382406,0.160197 0.170532,0 0.291111,-0.08957 0.120578,-0.08957 0.191203,-0.285944 z m -1.018027,-0.501261 h 1.021472 q -0.02067,-0.230822 -0.117134,-0.346233 -0.148139,-0.179145 -0.384128,-0.179145 -0.213596,0 -0.360013,0.142972 -0.144694,0.142971 -0.160197,0.382406 z"
         id="path7586"
         style="fill:#0000ff;fill-opacity:1;stroke:none;stroke-opacity:1" />
      <path
         d="m 49.603787,-47.893524 0.301446,0.04479 q 0.01895,0.139526 0.105076,0.203261 0.115411,0.08613 0.315226,0.08613 0.215319,0 0.332452,-0.08613 0.117133,-0.08613 0.158475,-0.241157 0.02412,-0.09474 0.02239,-0.397909 -0.203261,0.239434 -0.50643,0.239434 -0.377238,0 -0.583944,-0.272163 -0.206706,-0.272162 -0.206706,-0.652846 0,-0.261827 0.09474,-0.482313 0.09474,-0.222209 0.273885,-0.342787 0.180868,-0.120579 0.423747,-0.120579 0.323839,0 0.53399,0.261828 v -0.220487 h 0.285943 v 1.5813 q 0,0.427192 -0.08785,0.604615 -0.08613,0.179145 -0.275608,0.282498 -0.187757,0.103353 -0.463365,0.103353 -0.327285,0 -0.528823,-0.148139 -0.201538,-0.146417 -0.194648,-0.442695 z m 0.25666,-1.098987 q 0,0.360013 0.142972,0.525378 0.142971,0.165364 0.35829,0.165364 0.213596,0 0.35829,-0.163642 0.144694,-0.165364 0.144694,-0.516764 0,-0.335897 -0.149862,-0.50643 -0.148139,-0.170532 -0.35829,-0.170532 -0.206706,0 -0.3514,0.16881 -0.144694,0.167087 -0.144694,0.497816 z"
         id="path7588"
         style="fill:#0000ff;fill-opacity:1;stroke:none;stroke-opacity:1" />
      <path
         d="m 54.233999,-49.529946 h -1.667427 v -0.289388 h 1.667427 z m 0,0.766534 H 52.566572 V -49.0528 h 1.667427 z"
         id="path7590"
         style="fill:#0000ff;fill-opacity:1;stroke:none;stroke-opacity:1" />
      <path
         d="m 55.210683,-48.045109 0.969795,-2.525256 h 0.360013 l 1.033529,2.525256 h -0.380683 l -0.294556,-0.764811 h -1.055922 l -0.277331,0.764811 z m 0.728638,-1.036974 h 0.856107 l -0.26355,-0.699355 q -0.120578,-0.318672 -0.179145,-0.523655 -0.04823,0.242879 -0.136081,0.482314 z"
         id="path7592"
         style="fill:#0000ff;fill-opacity:1;stroke:none;stroke-opacity:1" />
      <path
         d="m 57.801397,-48.045109 v -1.829347 h 0.279053 v 0.260105 q 0.201539,-0.301446 0.582222,-0.301446 0.165365,0 0.303169,0.06029 0.139526,0.05857 0.208428,0.15503 0.0689,0.09646 0.09646,0.229099 0.01722,0.08613 0.01722,0.301446 v 1.124824 H 58.97789 v -1.112766 q 0,-0.189481 -0.03617,-0.282498 -0.03617,-0.09474 -0.129191,-0.149862 -0.0913,-0.05684 -0.215319,-0.05684 -0.198093,0 -0.342787,0.125746 -0.142972,0.125746 -0.142972,0.477146 v 0.999078 z"
         id="path7594"
         style="fill:#0000ff;fill-opacity:1;stroke:none;stroke-opacity:1" />
      <path
         d="m 59.647969,-48.959782 q 0,-0.508152 0.282498,-0.752754 0.23599,-0.203261 0.575332,-0.203261 0.377238,0 0.616672,0.248047 0.239435,0.246325 0.239435,0.68213 0,0.353122 -0.106798,0.556383 -0.105076,0.201538 -0.308337,0.313504 -0.201538,0.111965 -0.440972,0.111965 -0.384129,0 -0.62184,-0.246324 -0.23599,-0.246325 -0.23599,-0.70969 z m 0.318672,0 q 0,0.3514 0.153307,0.5271 0.153307,0.173977 0.385851,0.173977 0.230821,0 0.384128,-0.1757 0.153307,-0.1757 0.153307,-0.535713 0,-0.339342 -0.155029,-0.513319 -0.153307,-0.1757 -0.382406,-0.1757 -0.232544,0 -0.385851,0.173977 -0.153307,0.173978 -0.153307,0.525378 z"
         id="path7596"
         style="fill:#0000ff;fill-opacity:1;stroke:none;stroke-opacity:1" />
      <path
         d="m 62.912201,-48.045109 v -0.230821 q -0.173977,0.272162 -0.511597,0.272162 -0.218764,0 -0.403076,-0.120578 -0.182591,-0.120578 -0.284221,-0.335897 -0.09991,-0.217041 -0.09991,-0.497817 0,-0.273885 0.0913,-0.496094 0.09129,-0.223931 0.273886,-0.342787 0.18259,-0.118856 0.408244,-0.118856 0.165364,0 0.294555,0.07062 0.129192,0.0689 0.210151,0.180867 v -0.90606 h 0.308337 v 2.525256 z m -0.98013,-0.912951 q 0,0.3514 0.148139,0.525378 0.148139,0.173977 0.349677,0.173977 0.203261,0 0.34451,-0.165365 0.142972,-0.167087 0.142972,-0.508151 0,-0.375516 -0.144694,-0.551216 -0.144695,-0.1757 -0.356568,-0.1757 -0.206706,0 -0.346232,0.16881 -0.137804,0.16881 -0.137804,0.532267 z"
         id="path7598"
         style="fill:#0000ff;fill-opacity:1;stroke:none;stroke-opacity:1" />
      <path
         d="m 64.939641,-48.634221 0.320394,0.03962 q -0.07579,0.280776 -0.280776,0.435805 -0.204983,0.155029 -0.523655,0.155029 -0.401354,0 -0.637343,-0.246324 -0.234266,-0.248047 -0.234266,-0.694187 0,-0.461643 0.237711,-0.716581 0.237712,-0.254937 0.616673,-0.254937 0.366903,0 0.599447,0.24977 0.232544,0.249769 0.232544,0.7028 0,0.02756 -0.0017,0.08268 h -1.364258 q 0.01722,0.301446 0.170532,0.461643 0.153307,0.160197 0.382406,0.160197 0.170532,0 0.291111,-0.08957 0.120578,-0.08957 0.191203,-0.285944 z m -1.018027,-0.501261 h 1.021472 q -0.02067,-0.230822 -0.117134,-0.346233 -0.148139,-0.179145 -0.384128,-0.179145 -0.213596,0 -0.360013,0.142972 -0.144694,0.142971 -0.160197,0.382406 z"
         id="path7600"
         style="fill:#0000ff;fill-opacity:1;stroke:none;stroke-opacity:1" />
      <path
         d="m 68.260715,-49.529946 h -1.667427 v -0.289388 h 1.667427 z m 0,0.766534 H 66.593288 V -49.0528 h 1.667427 z"
         id="path7602"
         style="fill:#0000ff;fill-opacity:1;stroke:none;stroke-opacity:1" />
    </g>
    <g
       aria-label="short leg = Cathode ="
       transform="rotate(90,120.65904,105.81451)"
       id="g7640"
       style="font-size:3.52778px;line-height:1.25;font-family:Arial;-inkscape-font-specification:Arial;fill:#0000ff;fill-opacity:1;stroke:none;stroke-width:0.264583;stroke-opacity:1">
      <path
         d="m 35.245487,-32.508784 0.306614,-0.04823 q 0.02584,0.184312 0.142972,0.282498 0.118855,0.09819 0.330729,0.09819 0.213596,0 0.316949,-0.08613 0.103353,-0.08785 0.103353,-0.204983 0,-0.105075 -0.09129,-0.165365 -0.06374,-0.04134 -0.316949,-0.105075 -0.341065,-0.08613 -0.473701,-0.148139 -0.130914,-0.06374 -0.199816,-0.173978 -0.06718,-0.111965 -0.06718,-0.246324 0,-0.122301 0.05512,-0.225654 0.05684,-0.105076 0.153307,-0.173978 0.07235,-0.0534 0.196371,-0.08957 0.125746,-0.0379 0.268717,-0.0379 0.215319,0 0.377239,0.06201 0.163642,0.06201 0.241156,0.168809 0.07751,0.105076 0.106798,0.282498 l -0.303168,0.04134 q -0.02067,-0.141249 -0.120579,-0.220487 -0.09819,-0.07924 -0.279053,-0.07924 -0.213596,0 -0.304891,0.07062 -0.09129,0.07062 -0.09129,0.165364 0,0.06029 0.0379,0.108521 0.0379,0.04995 0.118856,0.08268 0.04651,0.01723 0.273885,0.07924 0.329007,0.08785 0.458198,0.144695 0.130914,0.05512 0.204984,0.161919 0.07407,0.106798 0.07407,0.265273 0,0.155029 -0.0913,0.292833 -0.08957,0.136081 -0.260105,0.211873 -0.170532,0.07407 -0.385851,0.07407 -0.356567,0 -0.544325,-0.148139 -0.186035,-0.148139 -0.237712,-0.43925 z"
         id="path7606"
         style="fill:#0000ff;fill-opacity:1;stroke:none;stroke-opacity:1" />
      <path
         d="m 37.133401,-31.962736 v -2.525257 h 0.310059 v 0.906061 q 0.217041,-0.251492 0.54777,-0.251492 0.203261,0 0.353123,0.08096 0.149861,0.07924 0.213596,0.220486 0.06546,0.141249 0.06546,0.409966 v 1.159276 H 38.31335 v -1.159276 q 0,-0.232544 -0.101631,-0.337619 -0.09991,-0.106798 -0.28422,-0.106798 -0.137804,0 -0.260105,0.07235 -0.120578,0.07062 -0.172255,0.192925 -0.05168,0.122301 -0.05168,0.33762 v 1.000801 z"
         id="path7608"
         style="fill:#0000ff;fill-opacity:1;stroke:none;stroke-opacity:1" />
      <path
         d="m 38.979973,-32.87741 q 0,-0.508151 0.282498,-0.752753 0.235989,-0.203261 0.575332,-0.203261 0.377238,0 0.616672,0.248047 0.239434,0.246324 0.239434,0.682129 0,0.353123 -0.106798,0.556383 -0.105075,0.201539 -0.308336,0.313504 -0.201538,0.111966 -0.440972,0.111966 -0.384129,0 -0.621841,-0.246324 -0.235989,-0.246325 -0.235989,-0.709691 z m 0.318672,0 q 0,0.3514 0.153307,0.5271 0.153306,0.173978 0.385851,0.173978 0.230821,0 0.384128,-0.1757 0.153307,-0.1757 0.153307,-0.535713 0,-0.339342 -0.15503,-0.513319 -0.153306,-0.1757 -0.382405,-0.1757 -0.232545,0 -0.385851,0.173977 -0.153307,0.173977 -0.153307,0.525377 z"
         id="path7610"
         style="fill:#0000ff;fill-opacity:1;stroke:none;stroke-opacity:1" />
      <path
         d="m 41.053922,-31.962736 v -1.829347 h 0.279053 v 0.27733 q 0.106798,-0.194648 0.196371,-0.256659 0.0913,-0.06201 0.199816,-0.06201 0.156751,0 0.318671,0.09991 l -0.106798,0.287665 q -0.113688,-0.06718 -0.227376,-0.06718 -0.101631,0 -0.182591,0.06201 -0.08096,0.06029 -0.11541,0.168809 -0.05168,0.165365 -0.05168,0.361736 v 0.957737 z"
         id="path7612"
         style="fill:#0000ff;fill-opacity:1;stroke:none;stroke-opacity:1" />
      <path
         d="m 42.909107,-32.240066 0.04479,0.273885 q -0.130913,0.02756 -0.234266,0.02756 -0.16881,0 -0.261828,-0.0534 -0.09302,-0.0534 -0.130913,-0.139527 -0.0379,-0.08785 -0.0379,-0.366903 v -1.052477 h -0.227377 v -0.241157 h 0.227377 v -0.45303 l 0.308336,-0.186036 v 0.639066 h 0.311781 v 0.241157 h -0.311781 v 1.069703 q 0,0.132636 0.0155,0.170532 0.01723,0.0379 0.0534,0.06029 0.0379,0.02239 0.106798,0.02239 0.05168,0 0.136081,-0.01206 z"
         id="path7614"
         style="fill:#0000ff;fill-opacity:1;stroke:none;stroke-opacity:1" />
      <path
         d="m 44.185516,-31.962736 v -2.525257 h 0.310058 v 2.525257 z"
         id="path7616"
         style="fill:#0000ff;fill-opacity:1;stroke:none;stroke-opacity:1" />
      <path
         d="m 46.228459,-32.551848 0.320394,0.03962 q -0.07579,0.280775 -0.280775,0.435805 -0.204984,0.155029 -0.523655,0.155029 -0.401354,0 -0.637343,-0.246324 -0.234267,-0.248047 -0.234267,-0.694188 0,-0.461643 0.237712,-0.71658 0.237711,-0.254937 0.616672,-0.254937 0.366903,0 0.599447,0.249769 0.232544,0.24977 0.232544,0.7028 0,0.02756 -0.0017,0.08268 h -1.364259 q 0.01723,0.301446 0.170532,0.461643 0.153307,0.160197 0.382406,0.160197 0.170533,0 0.291111,-0.08957 0.120578,-0.08957 0.191203,-0.285943 z m -1.018026,-0.501262 h 1.021471 q -0.02067,-0.230821 -0.117133,-0.346232 -0.148139,-0.179145 -0.384129,-0.179145 -0.213596,0 -0.360012,0.142972 -0.144694,0.142971 -0.160197,0.382405 z"
         id="path7618"
         style="fill:#0000ff;fill-opacity:1;stroke:none;stroke-opacity:1" />
      <path
         d="m 46.881305,-31.811152 0.301446,0.04479 q 0.01895,0.139527 0.105075,0.203261 0.115411,0.08613 0.315227,0.08613 0.215318,0 0.332451,-0.08613 0.117134,-0.08613 0.158475,-0.241157 0.02412,-0.09474 0.02239,-0.397908 -0.203261,0.239434 -0.506429,0.239434 -0.377238,0 -0.583944,-0.272163 -0.206706,-0.272163 -0.206706,-0.652846 0,-0.261827 0.09474,-0.482314 0.09474,-0.222208 0.273885,-0.342787 0.180868,-0.120578 0.423747,-0.120578 0.323839,0 0.53399,0.261827 v -0.220486 h 0.285944 v 1.5813 q 0,0.427192 -0.08785,0.604614 -0.08613,0.179146 -0.275608,0.282498 -0.187758,0.103353 -0.463366,0.103353 -0.327284,0 -0.528822,-0.148139 -0.201539,-0.146416 -0.194648,-0.442695 z m 0.256659,-1.098986 q 0,0.360013 0.142972,0.525377 0.142971,0.165365 0.35829,0.165365 0.213596,0 0.35829,-0.163642 0.144694,-0.165365 0.144694,-0.516765 0,-0.335897 -0.149861,-0.506429 -0.14814,-0.170532 -0.358291,-0.170532 -0.206705,0 -0.3514,0.168809 -0.144694,0.167088 -0.144694,0.497817 z"
         id="path7620"
         style="fill:#0000ff;fill-opacity:1;stroke:none;stroke-opacity:1" />
      <path
         d="m 51.511516,-33.447573 h -1.667427 v -0.289388 h 1.667427 z m 0,0.766534 h -1.667427 v -0.289388 h 1.667427 z"
         id="path7622"
         style="fill:#0000ff;fill-opacity:1;stroke:none;stroke-opacity:1" />
      <path
         d="m 54.761966,-32.848126 0.334174,0.08441 q -0.105075,0.411689 -0.378961,0.62873 -0.272162,0.215319 -0.666626,0.215319 -0.408244,0 -0.664904,-0.165365 -0.254937,-0.167087 -0.389296,-0.482314 -0.132636,-0.315226 -0.132636,-0.676961 0,-0.394464 0.149862,-0.687297 0.151584,-0.294556 0.428914,-0.446141 0.279053,-0.153306 0.613228,-0.153306 0.37896,0 0.637343,0.192925 0.258382,0.192925 0.360012,0.542603 l -0.329006,0.07751 q -0.08785,-0.275608 -0.254938,-0.401354 -0.167087,-0.125746 -0.420302,-0.125746 -0.29111,0 -0.487481,0.139526 -0.194648,0.139527 -0.273885,0.375516 -0.07924,0.234266 -0.07924,0.484036 0,0.322117 0.09302,0.563273 0.09474,0.239435 0.292834,0.358291 0.198093,0.118855 0.428914,0.118855 0.280776,0 0.475424,-0.161919 0.194648,-0.16192 0.26355,-0.480591 z"
         id="path7624"
         style="fill:#0000ff;fill-opacity:1;stroke:none;stroke-opacity:1" />
      <path
         d="m 56.661939,-32.18839 q -0.172255,0.146417 -0.332452,0.206706 -0.158475,0.06029 -0.341065,0.06029 -0.301446,0 -0.463366,-0.146417 -0.161919,-0.148139 -0.161919,-0.377238 0,-0.134359 0.06029,-0.244602 0.06201,-0.111965 0.160197,-0.179145 0.09991,-0.06718 0.223931,-0.10163 0.09129,-0.02412 0.275608,-0.04651 0.375516,-0.04479 0.552938,-0.106798 0.0017,-0.06373 0.0017,-0.08096 0,-0.18948 -0.08785,-0.266995 -0.118856,-0.105075 -0.353123,-0.105075 -0.218763,0 -0.323839,0.07751 -0.103353,0.07579 -0.153307,0.27044 l -0.303168,-0.04134 q 0.04134,-0.194648 0.136081,-0.313504 0.09474,-0.120578 0.273885,-0.184312 0.179146,-0.06546 0.415135,-0.06546 0.234266,0 0.380683,0.05512 0.146417,0.05512 0.215319,0.139527 0.0689,0.08268 0.09646,0.210151 0.0155,0.07924 0.0155,0.285943 v 0.413412 q 0,0.432359 0.01895,0.54777 0.02067,0.113688 0.07924,0.218764 h -0.32384 q -0.04823,-0.09646 -0.06201,-0.225654 z m -0.02584,-0.692465 q -0.168809,0.0689 -0.506429,0.117134 -0.191203,0.02756 -0.27044,0.06201 -0.07924,0.03445 -0.122301,0.101631 -0.04306,0.06546 -0.04306,0.146416 0,0.124024 0.09302,0.206706 0.09474,0.08268 0.275608,0.08268 0.179145,0 0.318671,-0.07751 0.139527,-0.07924 0.204983,-0.215319 0.04995,-0.105075 0.04995,-0.310058 z"
         id="path7626"
         style="fill:#0000ff;fill-opacity:1;stroke:none;stroke-opacity:1" />
      <path
         d="m 58.107157,-32.240066 0.04479,0.273885 q -0.130914,0.02756 -0.234267,0.02756 -0.168809,0 -0.261827,-0.0534 -0.09302,-0.0534 -0.130914,-0.139527 -0.0379,-0.08785 -0.0379,-0.366903 v -1.052477 h -0.227376 v -0.241157 h 0.227376 v -0.45303 l 0.308336,-0.186036 v 0.639066 h 0.311782 v 0.241157 h -0.311782 v 1.069703 q 0,0.132636 0.0155,0.170532 0.01723,0.0379 0.0534,0.06029 0.0379,0.02239 0.106798,0.02239 0.05168,0 0.136082,-0.01206 z"
         id="path7628"
         style="fill:#0000ff;fill-opacity:1;stroke:none;stroke-opacity:1" />
      <path
         d="m 58.410324,-31.962736 v -2.525257 h 0.310059 v 0.906061 q 0.217041,-0.251492 0.547771,-0.251492 0.20326,0 0.353122,0.08096 0.149862,0.07924 0.213596,0.220486 0.06546,0.141249 0.06546,0.409966 v 1.159276 H 59.59027 v -1.159276 q 0,-0.232544 -0.10163,-0.337619 -0.09991,-0.106798 -0.284221,-0.106798 -0.137804,0 -0.260105,0.07235 -0.120578,0.07062 -0.172254,0.192925 -0.05168,0.122301 -0.05168,0.33762 v 1.000801 z"
         id="path7630"
         style="fill:#0000ff;fill-opacity:1;stroke:none;stroke-opacity:1" />
      <path
         d="m 60.256898,-32.87741 q 0,-0.508151 0.282498,-0.752753 0.235989,-0.203261 0.575331,-0.203261 0.377239,0 0.616673,0.248047 0.239434,0.246324 0.239434,0.682129 0,0.353123 -0.106798,0.556383 -0.105075,0.201539 -0.308336,0.313504 -0.201538,0.111966 -0.440973,0.111966 -0.384128,0 -0.62184,-0.246324 -0.235989,-0.246325 -0.235989,-0.709691 z m 0.318672,0 q 0,0.3514 0.153306,0.5271 0.153307,0.173978 0.385851,0.173978 0.230822,0 0.384129,-0.1757 0.153307,-0.1757 0.153307,-0.535713 0,-0.339342 -0.15503,-0.513319 -0.153307,-0.1757 -0.382406,-0.1757 -0.232544,0 -0.385851,0.173977 -0.153306,0.173977 -0.153306,0.525377 z"
         id="path7632"
         style="fill:#0000ff;fill-opacity:1;stroke:none;stroke-opacity:1" />
      <path
         d="m 63.521128,-31.962736 v -0.230822 q -0.173978,0.272163 -0.511597,0.272163 -0.218764,0 -0.403077,-0.120578 -0.18259,-0.120579 -0.28422,-0.335897 -0.09991,-0.217042 -0.09991,-0.497817 0,-0.273885 0.09129,-0.496094 0.0913,-0.223931 0.273885,-0.342787 0.18259,-0.118856 0.408244,-0.118856 0.165365,0 0.294556,0.07062 0.129191,0.0689 0.210151,0.180868 v -0.906061 h 0.308336 v 2.525257 z m -0.980131,-0.912951 q 0,0.3514 0.14814,0.525377 0.148139,0.173978 0.349677,0.173978 0.203261,0 0.34451,-0.165365 0.142971,-0.167087 0.142971,-0.508152 0,-0.375515 -0.144694,-0.551215 -0.144694,-0.1757 -0.356567,-0.1757 -0.206706,0 -0.346233,0.168809 -0.137804,0.16881 -0.137804,0.532268 z"
         id="path7634"
         style="fill:#0000ff;fill-opacity:1;stroke:none;stroke-opacity:1" />
      <path
         d="m 65.548567,-32.551848 0.320394,0.03962 q -0.07579,0.280775 -0.280775,0.435805 -0.204983,0.155029 -0.523655,0.155029 -0.401354,0 -0.637343,-0.246324 -0.234267,-0.248047 -0.234267,-0.694188 0,-0.461643 0.237712,-0.71658 0.237712,-0.254937 0.616673,-0.254937 0.366903,0 0.599447,0.249769 0.232544,0.24977 0.232544,0.7028 0,0.02756 -0.0017,0.08268 h -1.364259 q 0.01723,0.301446 0.170533,0.461643 0.153307,0.160197 0.382406,0.160197 0.170532,0 0.29111,-0.08957 0.120579,-0.08957 0.191203,-0.285943 z m -1.018026,-0.501262 h 1.021471 q -0.02067,-0.230821 -0.117133,-0.346232 -0.148139,-0.179145 -0.384128,-0.179145 -0.213596,0 -0.360013,0.142972 -0.144694,0.142971 -0.160197,0.382405 z"
         id="path7636"
         style="fill:#0000ff;fill-opacity:1;stroke:none;stroke-opacity:1" />
      <path
         d="m 68.869642,-33.447573 h -1.667427 v -0.289388 h 1.667427 z m 0,0.766534 h -1.667427 v -0.289388 h 1.667427 z"
         id="path7638"
         style="fill:#0000ff;fill-opacity:1;stroke:none;stroke-opacity:1" />
    </g>
    <g
       aria-label="-"
       style="font-style:normal;font-weight:normal;font-size:10.5833px;line-height:1.25;font-family:sans-serif;letter-spacing:0px;word-spacing:0px;fill:#0000ff;fill-opacity:1;stroke:#0000ff;stroke-width:0.264583;stroke-opacity:1"
       id="g7644"
       transform="translate(226.47355,-1.6600014)">
      <path
         d="m 39.875163,93.527448 h 2.785359 v 0.847494 h -2.785359 z"
         style="fill:#0000ff;fill-opacity:1;stroke:#0000ff;stroke-width:0.264583;stroke-opacity:1"
         id="path7642"
         inkscape:connector-curvature="0" />
    </g>
    <g
       aria-label="-"
       style="font-style:normal;font-weight:normal;font-size:10.5833px;line-height:1.25;font-family:sans-serif;letter-spacing:0px;word-spacing:0px;fill:#000000;fill-opacity:1;stroke:#0000ff;stroke-width:0.264583;stroke-opacity:1"
       id="g7648"
       transform="rotate(90,168.12357,185.30373)">
      <path
         d="m 39.875163,93.527448 h 2.785359 v 0.847494 h -2.785359 z"
         style="fill:#0000ff;fill-opacity:1;stroke:#0000ff;stroke-width:0.264583;stroke-opacity:1"
         id="path7646"
         inkscape:connector-curvature="0" />
    </g>
    <g
       aria-label="+"
       style="font-style:normal;font-weight:normal;font-size:10.5833px;line-height:1.25;font-family:sans-serif;letter-spacing:0px;word-spacing:0px;fill:#0000ff;fill-opacity:1;stroke:#0000ff;stroke-width:0.264583;stroke-opacity:1"
       id="g7652"
       transform="matrix(-0.71063755,0,0,0.71063755,360.4945,-8.1704555)">
      <path
         d="m 119.7912,90.633568 v 2.878377 h 2.87838 v 0.8785 h -2.87838 v 2.878377 h -0.86817 v -2.878377 h -2.87837 v -0.8785 h 2.87837 v -2.878377 z"
         style="fill:#0000ff;fill-opacity:1;stroke:#0000ff;stroke-width:0.264583;stroke-opacity:1"
         id="path7650"
         inkscape:connector-curvature="0" />
    </g>
    <g
       aria-label="+"
       style="font-style:normal;font-weight:normal;font-size:10.5833px;line-height:1.25;font-family:sans-serif;letter-spacing:0px;word-spacing:0px;fill:#0000ff;fill-opacity:1;stroke:#0000ff;stroke-width:0.264583;stroke-opacity:1"
       id="g7656"
       transform="matrix(-0.43169701,0,0,0.43169701,397.35698,51.942564)">
      <path
         d="m 119.7912,90.633568 v 2.878377 h 2.87838 v 0.8785 h -2.87838 v 2.878377 h -0.86817 v -2.878377 h -2.87837 v -0.8785 h 2.87837 v -2.878377 z"
         style="fill:#0000ff;fill-opacity:1;stroke:#0000ff;stroke-width:0.264583;stroke-opacity:1"
         id="path7654"
         inkscape:connector-curvature="0" />
    </g>
    <path
       style="color:#000000;fill:none;stroke:#0000ff;stroke-width:0.5;stroke-miterlimit:4;stroke-dasharray:none;stroke-opacity:1"
       d="m 320.46355,15.997142 -0.093,5.330989 h 4.143 v -5.330598 z"
       id="path7658"
       sodipodi:nodetypes="ccccc" />
    <path
       style="fill:none;fill-opacity:1;stroke:#0000ff;stroke-width:0.5;stroke-linecap:round;stroke-linejoin:miter;stroke-miterlimit:4;stroke-dasharray:none;stroke-opacity:1;marker-end:url(#Arrow1Send)"
       d="m 310.47578,34.479235 c 1.94615,-0.807315 2.3848,0.393453 1.99502,1.138117 -0.4066,0.776807 -1.64423,1.038356 -2.21763,1.210095"
       id="path7660"
       sodipodi:nodetypes="csc" />
    <path
       style="color:#000000;fill:none;stroke:#0000ff;stroke-width:0.5;stroke-miterlimit:4;stroke-dasharray:none;stroke-opacity:1"
       d="m 332.58998,17.091022 v 26.183464 h 5 V 17.091022 Z"
       id="path7664"
       sodipodi:nodetypes="ccccc" />
    <g
       aria-label="glue around"
       transform="rotate(90,119.33614,107.13741)"
       id="g7686"
       style="font-size:2.82222px;line-height:1.25;font-family:Arial;-inkscape-font-specification:Arial;fill:#0000ff;fill-opacity:1;stroke:none;stroke-width:0.264583;stroke-opacity:1">
      <path
         d="m 35.10712,-95.152323 0.241157,0.03583 q 0.01516,0.111621 0.08406,0.162609 0.09233,0.0689 0.252181,0.0689 0.172254,0 0.265961,-0.0689 0.09371,-0.0689 0.126779,-0.192926 0.01929,-0.07579 0.01792,-0.318326 -0.162609,0.191547 -0.405143,0.191547 -0.30179,0 -0.467155,-0.21773 -0.165364,-0.21773 -0.165364,-0.522276 0,-0.209462 0.07579,-0.38585 0.07579,-0.177767 0.219108,-0.27423 0.144694,-0.09646 0.338997,-0.09646 0.259071,0 0.427191,0.209461 v -0.176389 h 0.228755 v 1.265039 q 0,0.341753 -0.07028,0.483691 -0.0689,0.143315 -0.220486,0.225998 -0.150206,0.08268 -0.370692,0.08268 -0.261827,0 -0.423058,-0.118511 -0.16123,-0.117133 -0.155718,-0.354156 z m 0.205328,-0.879188 q 0,0.28801 0.114377,0.420302 0.114377,0.132291 0.286632,0.132291 0.170876,0 0.286631,-0.130913 0.115755,-0.132292 0.115755,-0.413411 0,-0.268718 -0.119889,-0.405143 -0.118511,-0.136426 -0.286632,-0.136426 -0.165364,0 -0.281119,0.135048 -0.115755,0.133669 -0.115755,0.398252 z"
         id="path7666"
         style="fill:#0000ff;fill-opacity:1;stroke:none;stroke-opacity:1" />
      <path
         d="m 36.716668,-95.27359 v -2.020203 h 0.248046 v 2.020203 z"
         id="path7668"
         style="fill:#0000ff;fill-opacity:1;stroke:none;stroke-opacity:1" />
      <path
         d="m 38.308301,-95.27359 v -0.214974 q -0.170877,0.248047 -0.464399,0.248047 -0.129535,0 -0.242534,-0.04961 -0.111621,-0.04961 -0.166743,-0.124023 -0.05374,-0.07579 -0.07579,-0.184657 -0.01516,-0.07304 -0.01516,-0.23151 v -0.906749 h 0.248046 v 0.811664 q 0,0.194304 0.01516,0.261827 0.02343,0.09784 0.09922,0.154341 0.07579,0.05512 0.187413,0.05512 0.111621,0 0.209462,-0.0565 0.09784,-0.05788 0.137804,-0.155719 0.04134,-0.09922 0.04134,-0.286631 v -0.784104 h 0.248047 v 1.463476 z"
         id="path7670"
         style="fill:#0000ff;fill-opacity:1;stroke:none;stroke-opacity:1" />
      <path
         d="m 39.920604,-95.744879 0.256315,0.03169 q -0.06063,0.22462 -0.22462,0.348643 -0.163986,0.124024 -0.418923,0.124024 -0.321083,0 -0.509874,-0.19706 -0.187413,-0.198437 -0.187413,-0.555348 0,-0.369314 0.190169,-0.573264 0.190169,-0.203949 0.493337,-0.203949 0.293522,0 0.479557,0.199815 0.186035,0.199815 0.186035,0.562239 0,0.02205 -0.0014,0.06615 h -1.091405 q 0.01378,0.241156 0.136425,0.369314 0.122646,0.128157 0.305925,0.128157 0.136425,0 0.232888,-0.07166 0.09646,-0.07166 0.152962,-0.228754 z m -0.81442,-0.401009 h 0.817176 q -0.01654,-0.184657 -0.09371,-0.276985 -0.118512,-0.143316 -0.307303,-0.143316 -0.170876,0 -0.288009,0.114377 -0.115755,0.114377 -0.128158,0.305924 z"
         id="path7672"
         style="fill:#0000ff;fill-opacity:1;stroke:none;stroke-opacity:1" />
      <path
         d="m 42.227438,-95.454113 q -0.137804,0.117133 -0.265961,0.165365 -0.126779,0.04823 -0.272851,0.04823 -0.241157,0 -0.370692,-0.117133 -0.129536,-0.118512 -0.129536,-0.30179 0,-0.107487 0.04823,-0.195682 0.04961,-0.08957 0.128158,-0.143316 0.07993,-0.05374 0.179145,-0.0813 0.07304,-0.01929 0.220486,-0.03721 0.300412,-0.03583 0.44235,-0.08544 0.0014,-0.05099 0.0014,-0.06477 0,-0.151584 -0.07028,-0.213596 -0.09509,-0.08406 -0.282498,-0.08406 -0.175011,0 -0.259071,0.06201 -0.08268,0.06063 -0.122645,0.216352 l -0.242535,-0.03307 q 0.03307,-0.155718 0.108865,-0.250803 0.07579,-0.09646 0.219108,-0.14745 0.143316,-0.05237 0.332107,-0.05237 0.187413,0 0.304546,0.0441 0.117133,0.0441 0.172255,0.111621 0.05512,0.06615 0.07717,0.16812 0.0124,0.06339 0.0124,0.228754 v 0.330729 q 0,0.345888 0.01516,0.438216 0.01654,0.09095 0.06339,0.175011 h -0.259071 q -0.03859,-0.07717 -0.04961,-0.180523 z m -0.02067,-0.553971 q -0.135048,0.05512 -0.405143,0.09371 -0.152962,0.02205 -0.216352,0.04961 -0.06339,0.02756 -0.09784,0.0813 -0.03445,0.05237 -0.03445,0.117133 0,0.09922 0.07441,0.165365 0.07579,0.06615 0.220486,0.06615 0.143316,0 0.254937,-0.06201 0.111621,-0.06339 0.163987,-0.172255 0.03996,-0.08406 0.03996,-0.248046 z"
         id="path7674"
         style="fill:#0000ff;fill-opacity:1;stroke:none;stroke-opacity:1" />
      <path
         d="m 42.839287,-95.27359 v -1.463476 h 0.223242 v 0.221864 q 0.08544,-0.155718 0.157096,-0.205327 0.07304,-0.04961 0.159852,-0.04961 0.125402,0 0.254937,0.07993 l -0.08544,0.230132 q -0.09095,-0.05374 -0.181901,-0.05374 -0.0813,0 -0.146072,0.04961 -0.06477,0.04823 -0.09233,0.135047 -0.04134,0.132292 -0.04134,0.289388 v 0.766189 z"
         id="path7676"
         style="fill:#0000ff;fill-opacity:1;stroke:none;stroke-opacity:1" />
      <path
         d="m 43.689536,-96.005328 q 0,-0.406521 0.225998,-0.602202 0.188791,-0.162608 0.460264,-0.162608 0.30179,0 0.493337,0.198437 0.191548,0.197059 0.191548,0.545703 0,0.282497 -0.08544,0.445106 -0.08406,0.16123 -0.246668,0.250802 -0.161231,0.08957 -0.352778,0.08957 -0.307302,0 -0.497471,-0.19706 -0.188791,-0.197059 -0.188791,-0.567751 z m 0.254936,0 q 0,0.28112 0.122646,0.42168 0.122645,0.139181 0.30868,0.139181 0.184657,0 0.307302,-0.140559 0.122646,-0.14056 0.122646,-0.42857 0,-0.271473 -0.124024,-0.410655 -0.122645,-0.14056 -0.305924,-0.14056 -0.186035,0 -0.30868,0.139182 -0.122646,0.139182 -0.122646,0.420301 z"
         id="path7678"
         style="fill:#0000ff;fill-opacity:1;stroke:none;stroke-opacity:1" />
      <path
         d="m 46.310563,-95.27359 v -0.214974 q -0.170877,0.248047 -0.464399,0.248047 -0.129535,0 -0.242534,-0.04961 -0.111621,-0.04961 -0.166743,-0.124023 -0.05374,-0.07579 -0.07579,-0.184657 -0.01516,-0.07304 -0.01516,-0.23151 v -0.906749 h 0.248046 v 0.811664 q 0,0.194304 0.01516,0.261827 0.02343,0.09784 0.09922,0.154341 0.07579,0.05512 0.187414,0.05512 0.111621,0 0.209461,-0.0565 0.09784,-0.05788 0.137804,-0.155719 0.04134,-0.09922 0.04134,-0.286631 v -0.784104 h 0.248047 v 1.463476 z"
         id="path7680"
         style="fill:#0000ff;fill-opacity:1;stroke:none;stroke-opacity:1" />
      <path
         d="m 46.921033,-95.27359 v -1.463476 h 0.223242 v 0.208084 q 0.16123,-0.241156 0.465776,-0.241156 0.132292,0 0.242535,0.04823 0.111621,0.04685 0.166742,0.124023 0.05512,0.07717 0.07717,0.183279 0.01378,0.0689 0.01378,0.241157 v 0.899858 h -0.248047 v -0.890212 q 0,-0.151584 -0.02894,-0.225998 -0.02894,-0.07579 -0.103352,-0.119889 -0.07304,-0.04548 -0.172255,-0.04548 -0.158474,0 -0.274229,0.100597 -0.114378,0.100597 -0.114378,0.381716 v 0.799262 z"
         id="path7682"
         style="fill:#0000ff;fill-opacity:1;stroke:none;stroke-opacity:1" />
      <path
         d="m 49.440085,-95.27359 v -0.184657 q -0.139182,0.21773 -0.409277,0.21773 -0.175011,0 -0.322461,-0.09646 -0.146071,-0.09646 -0.227376,-0.268717 -0.07993,-0.173633 -0.07993,-0.398253 0,-0.219108 0.07304,-0.396874 0.07304,-0.179145 0.219108,-0.27423 0.146072,-0.09508 0.326595,-0.09508 0.132291,0 0.235644,0.0565 0.103353,0.05512 0.168121,0.144694 v -0.724848 h 0.246668 v 2.020203 z m -0.784103,-0.73036 q 0,0.28112 0.118511,0.420302 0.118511,0.139181 0.279742,0.139181 0.162608,0 0.275607,-0.132291 0.114377,-0.13367 0.114377,-0.406521 0,-0.300412 -0.115755,-0.440972 -0.115755,-0.14056 -0.285253,-0.14056 -0.165365,0 -0.276986,0.135048 -0.110243,0.135047 -0.110243,0.425813 z"
         id="path7684"
         style="fill:#0000ff;fill-opacity:1;stroke:none;stroke-opacity:1" />
    </g>
    <g
       aria-label="Important! Keep a narrow gap here"
       id="g7744"
       style="font-size:2.82222px;line-height:1.25;font-family:Arial;-inkscape-font-specification:Arial;fill:#0000ff;fill-opacity:1;stroke:none;stroke-width:0.264583;stroke-opacity:1"
       transform="translate(227.00272,-14.844525)">
      <path
         d="m 117.13819,32.323475 v -2.020203 h 0.4079 v 2.020203 z"
         style="font-weight:bold;fill:#0000ff;fill-opacity:1;stroke:none;stroke-opacity:1"
         id="path7688" />
      <path
         d="m 117.903,30.859999 h 0.35691 v 0.199816 q 0.19155,-0.232888 0.45613,-0.232888 0.14056,0 0.24392,0.05788 0.10335,0.05788 0.1695,0.175011 0.0965,-0.117133 0.20808,-0.175011 0.11162,-0.05788 0.2384,-0.05788 0.16123,0 0.27285,0.06614 0.11162,0.06477 0.16674,0.191547 0.04,0.09371 0.04,0.303169 v 0.935687 h -0.38723 v -0.836469 q 0,-0.21773 -0.04,-0.281119 -0.0537,-0.08268 -0.16537,-0.08268 -0.0813,0 -0.15296,0.04961 -0.0717,0.04961 -0.10335,0.146072 -0.0317,0.09508 -0.0317,0.30179 v 0.702799 h -0.38723 v -0.802018 q 0,-0.213595 -0.0207,-0.275607 -0.0207,-0.06201 -0.0648,-0.09233 -0.0427,-0.03032 -0.11713,-0.03032 -0.0896,0 -0.16123,0.04823 -0.0717,0.04823 -0.10335,0.139182 -0.0303,0.09095 -0.0303,0.30179 v 0.711067 H 117.903 Z"
         style="font-weight:bold;fill:#0000ff;fill-opacity:1;stroke:none;stroke-opacity:1"
         id="path7690" />
      <path
         d="m 120.43032,30.859999 h 0.36105 v 0.214974 q 0.0703,-0.110243 0.19017,-0.179145 0.11989,-0.0689 0.26596,-0.0689 0.25494,0 0.4327,0.199815 0.17777,0.199815 0.17777,0.556727 0,0.366558 -0.17915,0.570507 -0.17914,0.202572 -0.43408,0.202572 -0.12126,0 -0.22048,-0.04823 -0.0978,-0.04823 -0.20671,-0.165364 v 0.73725 h -0.38723 z m 0.3831,0.706933 q 0,0.246669 0.0978,0.36518 0.0978,0.117133 0.2384,0.117133 0.13505,0 0.22462,-0.107486 0.0896,-0.108865 0.0896,-0.355534 0,-0.230132 -0.0923,-0.341753 -0.0923,-0.111621 -0.22875,-0.111621 -0.14194,0 -0.23565,0.110243 -0.0937,0.108865 -0.0937,0.323838 z"
         style="font-weight:bold;fill:#0000ff;fill-opacity:1;stroke:none;stroke-opacity:1"
         id="path7692" />
      <path
         d="m 122.0757,31.571067 q 0,-0.192926 0.0951,-0.373448 0.0951,-0.180523 0.26872,-0.275608 0.17501,-0.09508 0.38999,-0.09508 0.3321,0 0.54432,0.216351 0.21222,0.214974 0.21222,0.544325 0,0.332107 -0.21498,0.551215 -0.21359,0.21773 -0.53881,0.21773 -0.20119,0 -0.38447,-0.09095 -0.1819,-0.09095 -0.27699,-0.265961 -0.0951,-0.176389 -0.0951,-0.428569 z m 0.39687,0.02067 q 0,0.21773 0.10336,0.333485 0.10335,0.115755 0.25493,0.115755 0.15159,0 0.25356,-0.115755 0.10335,-0.115755 0.10335,-0.336241 0,-0.214974 -0.10335,-0.330729 -0.10197,-0.115755 -0.25356,-0.115755 -0.15158,0 -0.25493,0.115755 -0.10336,0.115755 -0.10336,0.333485 z"
         style="font-weight:bold;fill:#0000ff;fill-opacity:1;stroke:none;stroke-opacity:1"
         id="path7694" />
      <path
         d="m 124.25989,32.323475 h -0.38723 v -1.463476 h 0.35967 v 0.208084 q 0.0923,-0.14745 0.16536,-0.194303 0.0744,-0.04685 0.16812,-0.04685 0.13229,0 0.25494,0.07304 l -0.11989,0.337619 q -0.0978,-0.06339 -0.1819,-0.06339 -0.0813,0 -0.1378,0.04547 -0.0565,0.0441 -0.0896,0.16123 -0.0317,0.117134 -0.0317,0.490582 z"
         style="font-weight:bold;fill:#0000ff;fill-opacity:1;stroke:none;stroke-opacity:1"
         id="path7696" />
      <path
         d="m 125.6586,30.859999 v 0.308681 h -0.26459 v 0.5898 q 0,0.179144 0.007,0.209461 0.008,0.02894 0.0345,0.04823 0.0276,0.01929 0.0661,0.01929 0.0537,0 0.15572,-0.03721 l 0.0331,0.300412 q -0.13505,0.05788 -0.30592,0.05788 -0.10473,0 -0.18879,-0.03445 -0.0841,-0.03583 -0.12403,-0.09095 -0.0386,-0.0565 -0.0537,-0.151584 -0.0124,-0.06752 -0.0124,-0.272851 V 31.16868 h -0.17777 v -0.308681 h 0.17777 v -0.290765 l 0.3886,-0.225999 v 0.516764 z"
         style="font-weight:bold;fill:#0000ff;fill-opacity:1;stroke:none;stroke-opacity:1"
         id="path7698" />
      <path
         d="m 126.2167,31.306483 -0.3514,-0.06339 q 0.0593,-0.212218 0.20395,-0.314193 0.14469,-0.101974 0.42995,-0.101974 0.25907,0 0.38585,0.06201 0.12678,0.06063 0.17777,0.155718 0.0524,0.09371 0.0524,0.345888 l -0.004,0.451996 q 0,0.192925 0.0179,0.285254 0.0193,0.09095 0.0703,0.195681 h -0.38309 q -0.0152,-0.03859 -0.0372,-0.114377 -0.01,-0.03445 -0.0138,-0.04547 -0.0992,0.09646 -0.21222,0.144693 -0.113,0.04823 -0.24116,0.04823 -0.22599,0 -0.35691,-0.122646 -0.12953,-0.122645 -0.12953,-0.310058 0,-0.124023 0.0593,-0.220486 0.0593,-0.09784 0.16537,-0.148828 0.10748,-0.05236 0.30868,-0.09095 0.27147,-0.05099 0.3762,-0.09509 v -0.03858 q 0,-0.111621 -0.0551,-0.158474 -0.0551,-0.04823 -0.20808,-0.04823 -0.10336,0 -0.16123,0.04134 -0.0579,0.03996 -0.0937,0.141937 z m 0.51814,0.314193 q -0.0744,0.02481 -0.23564,0.05926 -0.16123,0.03445 -0.21084,0.06752 -0.0758,0.05374 -0.0758,0.136426 0,0.0813 0.0606,0.14056 0.0606,0.05926 0.15434,0.05926 0.10473,0 0.19982,-0.0689 0.0703,-0.05237 0.0923,-0.128158 0.0152,-0.04961 0.0152,-0.188791 z"
         style="font-weight:bold;fill:#0000ff;fill-opacity:1;stroke:none;stroke-opacity:1"
         id="path7700" />
      <path
         d="m 128.82808,32.323475 h -0.38723 v -0.746896 q 0,-0.237023 -0.0248,-0.305925 -0.0248,-0.07028 -0.0813,-0.108864 -0.0551,-0.03859 -0.13367,-0.03859 -0.10059,0 -0.18052,0.05512 -0.0799,0.05512 -0.11024,0.146072 -0.0289,0.09095 -0.0289,0.336241 v 0.662836 h -0.38723 v -1.463476 h 0.35967 v 0.214974 q 0.19155,-0.248046 0.48231,-0.248046 0.12816,0 0.23427,0.04685 0.10611,0.04547 0.15985,0.117133 0.0551,0.07166 0.0758,0.162608 0.0221,0.09095 0.0221,0.260449 z"
         style="font-weight:bold;fill:#0000ff;fill-opacity:1;stroke:none;stroke-opacity:1"
         id="path7702" />
      <path
         d="m 129.89193,30.859999 v 0.308681 h -0.26459 v 0.5898 q 0,0.179144 0.007,0.209461 0.008,0.02894 0.0344,0.04823 0.0276,0.01929 0.0661,0.01929 0.0537,0 0.15572,-0.03721 l 0.0331,0.300412 q -0.13505,0.05788 -0.30592,0.05788 -0.10473,0 -0.18879,-0.03445 -0.0841,-0.03583 -0.12403,-0.09095 -0.0386,-0.0565 -0.0537,-0.151584 -0.0124,-0.06752 -0.0124,-0.272851 V 31.16868 h -0.17777 v -0.308681 h 0.17777 v -0.290765 l 0.3886,-0.225999 v 0.516764 z"
         style="font-weight:bold;fill:#0000ff;fill-opacity:1;stroke:none;stroke-opacity:1"
         id="path7704" />
      <path
         d="m 130.31223,31.802577 -0.1006,-1.02526 v -0.474045 h 0.41892 v 0.474045 l -0.0992,1.02526 z m -0.0841,0.520898 v -0.387229 h 0.38723 v 0.387229 z"
         style="font-weight:bold;fill:#0000ff;fill-opacity:1;stroke:none;stroke-opacity:1"
         id="path7706" />
      <path
         d="m 117.15197,35.85125 v -2.020202 h 0.26734 v 1.001833 l 1.00321,-1.001833 h 0.36243 l -0.8475,0.818554 0.8847,1.201648 h -0.35277 l -0.71934,-1.022504 -0.33073,0.322461 v 0.700043 z"
         id="path7708"
         style="fill:#0000ff;fill-opacity:1;stroke:none;stroke-opacity:1" />
      <path
         d="m 120.01553,35.379961 0.25632,0.03169 q -0.0606,0.22462 -0.22462,0.348644 -0.16399,0.124023 -0.41892,0.124023 -0.32109,0 -0.50988,-0.197059 -0.18741,-0.198438 -0.18741,-0.555349 0,-0.369314 0.19017,-0.573264 0.19017,-0.203949 0.49333,-0.203949 0.29353,0 0.47956,0.199815 0.18604,0.199815 0.18604,0.562239 0,0.02205 -10e-4,0.06615 h -1.09141 q 0.0138,0.241156 0.13643,0.369314 0.12264,0.128157 0.30592,0.128157 0.13643,0 0.23289,-0.07166 0.0965,-0.07166 0.15296,-0.228754 z m -0.81442,-0.401009 h 0.81718 q -0.0165,-0.184657 -0.0937,-0.276985 -0.11851,-0.143316 -0.3073,-0.143316 -0.17088,0 -0.28801,0.114377 -0.11575,0.114377 -0.12816,0.305924 z"
         id="path7710"
         style="fill:#0000ff;fill-opacity:1;stroke:none;stroke-opacity:1" />
      <path
         d="m 121.58512,35.379961 0.25631,0.03169 q -0.0606,0.22462 -0.22462,0.348644 -0.16398,0.124023 -0.41892,0.124023 -0.32108,0 -0.50987,-0.197059 -0.18742,-0.198438 -0.18742,-0.555349 0,-0.369314 0.19017,-0.573264 0.19017,-0.203949 0.49334,-0.203949 0.29352,0 0.47956,0.199815 0.18603,0.199815 0.18603,0.562239 0,0.02205 -0.001,0.06615 h -1.0914 q 0.0138,0.241156 0.13642,0.369314 0.12265,0.128157 0.30593,0.128157 0.13642,0 0.23289,-0.07166 0.0965,-0.07166 0.15296,-0.228754 z m -0.81442,-0.401009 h 0.81717 q -0.0165,-0.184657 -0.0937,-0.276985 -0.11851,-0.143316 -0.30731,-0.143316 -0.17087,0 -0.288,0.114377 -0.11576,0.114377 -0.12816,0.305924 z"
         id="path7712"
         style="fill:#0000ff;fill-opacity:1;stroke:none;stroke-opacity:1" />
      <path
         d="m 122.15287,36.412111 v -2.024336 h 0.226 v 0.190169 q 0.0799,-0.111621 0.18052,-0.166743 0.1006,-0.0565 0.24391,-0.0565 0.18742,0 0.33073,0.09646 0.14332,0.09646 0.21635,0.272852 0.073,0.17501 0.073,0.384472 0,0.22462 -0.0813,0.405143 -0.0799,0.179145 -0.23427,0.275607 -0.15296,0.09509 -0.32246,0.09509 -0.12403,0 -0.22324,-0.05237 -0.0978,-0.05237 -0.16123,-0.132291 v 0.712445 z m 0.22462,-1.284331 q 0,0.282498 0.11438,0.417546 0.11437,0.135047 0.27698,0.135047 0.16537,0 0.2825,-0.139181 0.11851,-0.14056 0.11851,-0.434082 0,-0.279742 -0.11575,-0.418923 -0.11438,-0.139182 -0.27423,-0.139182 -0.15848,0 -0.28112,0.148828 -0.12127,0.14745 -0.12127,0.429947 z"
         id="path7714"
         style="fill:#0000ff;fill-opacity:1;stroke:none;stroke-opacity:1" />
      <path
         d="m 125.46154,35.670727 q -0.13781,0.117133 -0.26596,0.165365 -0.12678,0.04823 -0.27286,0.04823 -0.24115,0 -0.37069,-0.117133 -0.12953,-0.118511 -0.12953,-0.30179 0,-0.107487 0.0482,-0.195682 0.0496,-0.08957 0.12816,-0.143316 0.0799,-0.05374 0.17914,-0.0813 0.073,-0.01929 0.22049,-0.03721 0.30041,-0.03583 0.44235,-0.08544 0.001,-0.05099 0.001,-0.06477 0,-0.151584 -0.0703,-0.213596 -0.0951,-0.08406 -0.28249,-0.08406 -0.17501,0 -0.25907,0.06201 -0.0827,0.06063 -0.12265,0.216352 l -0.24253,-0.03307 q 0.0331,-0.155718 0.10886,-0.250803 0.0758,-0.09646 0.21911,-0.14745 0.14331,-0.05236 0.33211,-0.05236 0.18741,0 0.30454,0.0441 0.11713,0.0441 0.17226,0.111621 0.0551,0.06615 0.0772,0.16812 0.0124,0.06339 0.0124,0.228755 v 0.330728 q 0,0.345888 0.0152,0.438216 0.0165,0.09095 0.0634,0.175011 h -0.25907 q -0.0386,-0.07717 -0.0496,-0.180523 z m -0.0207,-0.553971 q -0.13505,0.05512 -0.40515,0.09371 -0.15296,0.02205 -0.21635,0.04961 -0.0634,0.02756 -0.0978,0.0813 -0.0345,0.05237 -0.0345,0.117133 0,0.09922 0.0744,0.165365 0.0758,0.06615 0.22049,0.06615 0.14332,0 0.25494,-0.06201 0.11162,-0.06339 0.16398,-0.172255 0.04,-0.08406 0.04,-0.248046 z"
         id="path7716"
         style="fill:#0000ff;fill-opacity:1;stroke:none;stroke-opacity:1" />
      <path
         d="m 126.86024,35.85125 v -1.463475 h 0.22325 v 0.208083 q 0.16123,-0.241156 0.46577,-0.241156 0.13229,0 0.24254,0.04823 0.11162,0.04685 0.16674,0.124023 0.0551,0.07717 0.0772,0.183279 0.0138,0.0689 0.0138,0.241157 v 0.899858 h -0.24805 v -0.890212 q 0,-0.151584 -0.0289,-0.225998 -0.0289,-0.07579 -0.10336,-0.119889 -0.073,-0.04548 -0.17225,-0.04548 -0.15848,0 -0.27423,0.100597 -0.11438,0.100597 -0.11438,0.381716 v 0.799262 z"
         id="path7718"
         style="fill:#0000ff;fill-opacity:1;stroke:none;stroke-opacity:1" />
      <path
         d="m 129.38481,35.670727 q -0.13781,0.117133 -0.26596,0.165365 -0.12678,0.04823 -0.27285,0.04823 -0.24116,0 -0.3707,-0.117133 -0.12953,-0.118511 -0.12953,-0.30179 0,-0.107487 0.0482,-0.195682 0.0496,-0.08957 0.12816,-0.143316 0.0799,-0.05374 0.17914,-0.0813 0.073,-0.01929 0.22049,-0.03721 0.30041,-0.03583 0.44235,-0.08544 10e-4,-0.05099 10e-4,-0.06477 0,-0.151584 -0.0703,-0.213596 -0.0951,-0.08406 -0.2825,-0.08406 -0.17501,0 -0.25907,0.06201 -0.0827,0.06063 -0.12265,0.216352 l -0.24253,-0.03307 q 0.0331,-0.155718 0.10886,-0.250803 0.0758,-0.09646 0.21911,-0.14745 0.14332,-0.05236 0.33211,-0.05236 0.18741,0 0.30454,0.0441 0.11714,0.0441 0.17226,0.111621 0.0551,0.06615 0.0772,0.16812 0.0124,0.06339 0.0124,0.228755 v 0.330728 q 0,0.345888 0.0152,0.438216 0.0165,0.09095 0.0634,0.175011 h -0.25907 q -0.0386,-0.07717 -0.0496,-0.180523 z m -0.0207,-0.553971 q -0.13505,0.05512 -0.40515,0.09371 -0.15296,0.02205 -0.21635,0.04961 -0.0634,0.02756 -0.0978,0.0813 -0.0344,0.05237 -0.0344,0.117133 0,0.09922 0.0744,0.165365 0.0758,0.06615 0.22048,0.06615 0.14332,0 0.25494,-0.06201 0.11162,-0.06339 0.16398,-0.172255 0.04,-0.08406 0.04,-0.248046 z"
         id="path7720"
         style="fill:#0000ff;fill-opacity:1;stroke:none;stroke-opacity:1" />
      <path
         d="m 129.99666,35.85125 v -1.463475 h 0.22324 v 0.221864 q 0.0854,-0.155719 0.1571,-0.205328 0.073,-0.04961 0.15985,-0.04961 0.1254,0 0.25493,0.07993 l -0.0854,0.230132 q -0.0909,-0.05374 -0.1819,-0.05374 -0.0813,0 -0.14608,0.04961 -0.0648,0.04823 -0.0923,0.135048 -0.0413,0.132291 -0.0413,0.289387 v 0.766189 z"
         id="path7722"
         style="fill:#0000ff;fill-opacity:1;stroke:none;stroke-opacity:1" />
      <path
         d="m 130.93648,35.85125 v -1.463475 h 0.22324 v 0.221864 q 0.0854,-0.155719 0.1571,-0.205328 0.073,-0.04961 0.15985,-0.04961 0.1254,0 0.25494,0.07993 l -0.0854,0.230132 q -0.091,-0.05374 -0.1819,-0.05374 -0.0813,0 -0.14608,0.04961 -0.0648,0.04823 -0.0923,0.135048 -0.0413,0.132291 -0.0413,0.289387 v 0.766189 z"
         id="path7724"
         style="fill:#0000ff;fill-opacity:1;stroke:none;stroke-opacity:1" />
      <path
         d="m 131.78673,35.119512 q 0,-0.406521 0.226,-0.602202 0.18879,-0.162608 0.46026,-0.162608 0.30179,0 0.49334,0.198437 0.19154,0.197059 0.19154,0.545703 0,0.282497 -0.0854,0.445106 -0.0841,0.16123 -0.24667,0.250802 -0.16123,0.08957 -0.35278,0.08957 -0.3073,0 -0.49747,-0.197059 -0.18879,-0.19706 -0.18879,-0.567752 z m 0.25493,0 q 0,0.28112 0.12265,0.42168 0.12264,0.139181 0.30868,0.139181 0.18466,0 0.3073,-0.140559 0.12265,-0.14056 0.12265,-0.42857 0,-0.271473 -0.12403,-0.410655 -0.12264,-0.14056 -0.30592,-0.14056 -0.18604,0 -0.30868,0.139182 -0.12265,0.139182 -0.12265,0.420301 z"
         id="path7726"
         style="fill:#0000ff;fill-opacity:1;stroke:none;stroke-opacity:1" />
      <path
         d="m 133.71874,35.85125 -0.44787,-1.463475 h 0.25632 l 0.23289,0.844736 0.0868,0.314193 q 0.006,-0.02343 0.0758,-0.30179 l 0.23288,-0.857139 h 0.25494 l 0.21911,0.84887 0.073,0.279742 0.0841,-0.282498 0.25081,-0.846114 h 0.24115 l -0.4575,1.463475 h -0.2577 l -0.23289,-0.876432 -0.0565,-0.249424 -0.29627,1.125856 z"
         id="path7728"
         style="fill:#0000ff;fill-opacity:1;stroke:none;stroke-opacity:1" />
      <path
         d="m 117.08583,39.500292 0.24115,0.03583 q 0.0152,0.111621 0.0841,0.162609 0.0923,0.0689 0.25218,0.0689 0.17226,0 0.26597,-0.0689 0.0937,-0.0689 0.12677,-0.192925 0.0193,-0.07579 0.0179,-0.318327 -0.16261,0.191547 -0.40514,0.191547 -0.30179,0 -0.46716,-0.21773 -0.16536,-0.21773 -0.16536,-0.522276 0,-0.209461 0.0758,-0.38585 0.0758,-0.177767 0.21911,-0.27423 0.14469,-0.09646 0.33899,-0.09646 0.25908,0 0.4272,0.209461 V 37.91555 h 0.22875 v 1.265038 q 0,0.341753 -0.0703,0.483691 -0.0689,0.143316 -0.22049,0.225998 -0.1502,0.08268 -0.37069,0.08268 -0.26182,0 -0.42306,-0.118511 -0.16123,-0.117133 -0.15571,-0.354156 z m 0.20532,-0.879187 q 0,0.288009 0.11438,0.420301 0.11438,0.132292 0.28663,0.132292 0.17088,0 0.28663,-0.130914 0.11576,-0.132292 0.11576,-0.413411 0,-0.268717 -0.11989,-0.405143 -0.11851,-0.136426 -0.28663,-0.136426 -0.16537,0 -0.28112,0.135048 -0.11576,0.13367 -0.11576,0.398253 z"
         id="path7730"
         style="fill:#0000ff;fill-opacity:1;stroke:none;stroke-opacity:1" />
      <path
         d="m 119.65587,39.198502 q -0.13781,0.117133 -0.26597,0.165365 -0.12677,0.04823 -0.27285,0.04823 -0.24115,0 -0.37069,-0.117133 -0.12953,-0.118511 -0.12953,-0.30179 0,-0.107487 0.0482,-0.195682 0.0496,-0.08957 0.12815,-0.143315 0.0799,-0.05374 0.17915,-0.08131 0.073,-0.01929 0.22049,-0.03721 0.30041,-0.03583 0.44235,-0.08544 0.001,-0.05099 0.001,-0.06477 0,-0.151584 -0.0703,-0.213595 -0.0951,-0.08406 -0.28249,-0.08406 -0.17501,0 -0.25908,0.06201 -0.0827,0.06063 -0.12264,0.216352 l -0.24254,-0.03307 q 0.0331,-0.155718 0.10887,-0.250803 0.0758,-0.09646 0.21911,-0.14745 0.14331,-0.05237 0.3321,-0.05237 0.18742,0 0.30455,0.0441 0.11713,0.0441 0.17226,0.111621 0.0551,0.06615 0.0772,0.16812 0.0124,0.06339 0.0124,0.228755 v 0.330729 q 0,0.345887 0.0152,0.438215 0.0165,0.09095 0.0634,0.175011 h -0.25907 q -0.0386,-0.07717 -0.0496,-0.180523 z m -0.0207,-0.553971 q -0.13505,0.05512 -0.40515,0.09371 -0.15296,0.02205 -0.21635,0.04961 -0.0634,0.02756 -0.0978,0.0813 -0.0344,0.05237 -0.0344,0.117134 0,0.09922 0.0744,0.165364 0.0758,0.06615 0.22049,0.06615 0.14331,0 0.25494,-0.06201 0.11162,-0.06339 0.16398,-0.172255 0.04,-0.08406 0.04,-0.248046 z"
         id="path7732"
         style="fill:#0000ff;fill-opacity:1;stroke:none;stroke-opacity:1" />
      <path
         d="M 120.27047,39.939886 V 37.91555 h 0.226 v 0.190169 q 0.0799,-0.111621 0.18052,-0.166743 0.1006,-0.0565 0.24391,-0.0565 0.18742,0 0.33073,0.09646 0.14332,0.09646 0.21635,0.272852 0.073,0.17501 0.073,0.384472 0,0.22462 -0.0813,0.405143 -0.0799,0.179145 -0.23427,0.275607 -0.15296,0.09508 -0.32246,0.09508 -0.12402,0 -0.22324,-0.05237 -0.0978,-0.05237 -0.16123,-0.132292 v 0.712445 z m 0.22462,-1.28433 q 0,0.282497 0.11438,0.417545 0.11437,0.135047 0.27698,0.135047 0.16537,0 0.2825,-0.139181 0.11851,-0.14056 0.11851,-0.434082 0,-0.279742 -0.11575,-0.418923 -0.11438,-0.139182 -0.27423,-0.139182 -0.15848,0 -0.28112,0.148828 -0.12127,0.14745 -0.12127,0.429948 z"
         id="path7734"
         style="fill:#0000ff;fill-opacity:1;stroke:none;stroke-opacity:1" />
      <path
         d="m 122.62416,39.379025 v -2.020202 h 0.24804 v 0.724847 q 0.17364,-0.201193 0.43822,-0.201193 0.16261,0 0.2825,0.06477 0.11989,0.06339 0.17087,0.176388 0.0524,0.112999 0.0524,0.327973 v 0.927419 h -0.24805 v -0.927419 q 0,-0.186035 -0.0813,-0.270095 -0.0799,-0.08544 -0.22738,-0.08544 -0.11024,0 -0.20808,0.05788 -0.0965,0.0565 -0.1378,0.15434 -0.0413,0.09784 -0.0413,0.270096 v 0.800639 z"
         id="path7736"
         style="fill:#0000ff;fill-opacity:1;stroke:none;stroke-opacity:1" />
      <path
         d="m 125.19558,38.907736 0.25631,0.03169 q -0.0606,0.22462 -0.22462,0.348644 -0.16399,0.124023 -0.41892,0.124023 -0.32109,0 -0.50988,-0.197059 -0.18741,-0.198438 -0.18741,-0.555349 0,-0.369314 0.19017,-0.573264 0.19017,-0.203949 0.49334,-0.203949 0.29352,0 0.47955,0.199815 0.18604,0.199816 0.18604,0.562239 0,0.02205 -0.001,0.06615 h -1.0914 q 0.0138,0.241157 0.13642,0.369314 0.12265,0.128157 0.30593,0.128157 0.13642,0 0.23288,-0.07166 0.0965,-0.07166 0.15297,-0.228755 z m -0.81442,-0.401008 h 0.81717 q -0.0165,-0.184657 -0.0937,-0.276986 -0.11852,-0.143316 -0.30731,-0.143316 -0.17087,0 -0.28801,0.114377 -0.11575,0.114377 -0.12815,0.305925 z"
         id="path7738"
         style="fill:#0000ff;fill-opacity:1;stroke:none;stroke-opacity:1" />
      <path
         d="M 125.76057,39.379025 V 37.91555 h 0.22324 v 0.221864 q 0.0854,-0.155719 0.1571,-0.205328 0.073,-0.04961 0.15985,-0.04961 0.1254,0 0.25494,0.07993 l -0.0854,0.230132 q -0.0909,-0.05374 -0.1819,-0.05374 -0.0813,0 -0.14607,0.04961 -0.0648,0.04823 -0.0923,0.135048 -0.0413,0.132291 -0.0413,0.289387 v 0.766189 z"
         id="path7740"
         style="fill:#0000ff;fill-opacity:1;stroke:none;stroke-opacity:1" />
      <path
         d="m 127.70498,38.907736 0.25632,0.03169 q -0.0606,0.22462 -0.22462,0.348644 -0.16399,0.124023 -0.41893,0.124023 -0.32108,0 -0.50987,-0.197059 -0.18741,-0.198438 -0.18741,-0.555349 0,-0.369314 0.19016,-0.573264 0.19017,-0.203949 0.49334,-0.203949 0.29352,0 0.47956,0.199815 0.18603,0.199816 0.18603,0.562239 0,0.02205 -0.001,0.06615 h -1.09141 q 0.0138,0.241157 0.13643,0.369314 0.12264,0.128157 0.30592,0.128157 0.13643,0 0.23289,-0.07166 0.0965,-0.07166 0.15296,-0.228755 z m -0.81442,-0.401008 h 0.81718 q -0.0165,-0.184657 -0.0937,-0.276986 -0.11851,-0.143316 -0.3073,-0.143316 -0.17088,0 -0.28801,0.114377 -0.11576,0.114377 -0.12816,0.305925 z"
         id="path7742"
         style="fill:#0000ff;fill-opacity:1;stroke:none;stroke-opacity:1" />
    </g>
    <path
       style="fill:none;fill-opacity:1;stroke:#0000ff;stroke-width:0.4;stroke-linecap:butt;stroke-linejoin:miter;stroke-miterlimit:4;stroke-dasharray:none;stroke-opacity:1;marker-end:url(#Arrow2Mend)"
       d="m 343.24876,16.47352 c 0,0 -4.12847,-2.811917 -4.7532,6.839523"
       id="path7746"
       sodipodi:nodetypes="cc" />
    <path
       style="color:#000000;fill:none;stroke:#0000ff;stroke-width:0.5;stroke-miterlimit:4;stroke-dasharray:none;stroke-opacity:1"
       d="m 313.23592,32.835888 h -9.7793 v 5 h 9.7793 z"
       id="path7748"
       sodipodi:nodetypes="ccccc" />
    <text
       xml:space="preserve"
       style="font-size:2.82222px;line-height:1.25;font-family:Arial;-inkscape-font-specification:Arial;fill:#0000ff;fill-opacity:1;stroke:none;stroke-width:0.264583;stroke-opacity:1"
       x="27.338726"
       y="-291.37384"
       id="text7758"
       transform="rotate(90)"><tspan
         sodipodi:role="line"
         id="tspan7756"
         style="font-size:2.82222px;fill:#0000ff;fill-opacity:1;stroke:none;stroke-width:0.264583;stroke-opacity:1"
         x="27.338726"
         y="-291.37384">https://github.com/vektorious/cm-flashlight</tspan></text>
    <circle
       style="fill:none;fill-opacity:1;stroke:#ff0000;stroke-width:0.001;stroke-linecap:round;stroke-linejoin:round;stroke-miterlimit:4;stroke-dasharray:none;stroke-dashoffset:0;stroke-opacity:1"
       id="circle7760"
       cx="320.49045"
       cy="45.930317"
       r="1.4" />
    <circle
       r="1.4"
       cy="45.930317"
       cx="332.79623"
       id="circle7762"
       style="fill:none;fill-opacity:1;stroke:#ff0000;stroke-width:0.001;stroke-linecap:round;stroke-linejoin:round;stroke-miterlimit:4;stroke-dasharray:none;stroke-dashoffset:0;stroke-opacity:1" />
    <circle
       style="fill:none;fill-opacity:1;stroke:#ff0000;stroke-width:0.001;stroke-linecap:round;stroke-linejoin:round;stroke-miterlimit:4;stroke-dasharray:none;stroke-dashoffset:0;stroke-opacity:1"
       id="circle7764"
       cx="280.77615"
       cy="45.930317"
       r="1.4" />
    <circle
       r="0.82398736"
       cy="35.335888"
       cx="298.96988"
       id="circle7766"
       style="fill:none;fill-opacity:1;stroke:#ff0000;stroke-width:0.00205532;stroke-linecap:round;stroke-linejoin:round;stroke-miterlimit:4;stroke-dasharray:none;stroke-dashoffset:0;stroke-opacity:1" />
    <circle
       r="1.1943417"
       cy="35.335403"
       cx="354.36136"
       id="circle7768"
       style="fill:none;fill-opacity:1;stroke:#ff0000;stroke-width:0.00297911;stroke-linecap:round;stroke-linejoin:round;stroke-miterlimit:4;stroke-dasharray:none;stroke-dashoffset:0;stroke-opacity:1" />
    <path
       style="fill:none;fill-opacity:1;stroke:#0000ff;stroke-width:0.5;stroke-linecap:round;stroke-linejoin:miter;stroke-miterlimit:4;stroke-dasharray:none;stroke-opacity:1;marker-end:url(#Arrow1Send)"
       d="m 323.04046,17.600994 c -1.94615,-0.807315 -2.3848,0.393453 -1.99502,1.138117 0.4066,0.776807 1.64423,1.038356 2.21763,1.210095"
       id="path1908"
       sodipodi:nodetypes="csc" />
  </g>
</svg>
